<svg xmlns="http://www.w3.org/2000/svg" class="svglite" width="1920" height="768" viewBox="0 0 1440 576"><defs><style>.svglite rect{fill:none;stroke:#000;stroke-linecap:round;stroke-linejoin:round;stroke-miterlimit:10}</style></defs><rect width="100%" height="100%" style="stroke:none;fill:none"/><defs><clipPath id="cpMC4wMHwxNDQwLjAwfDAuMDB8NTc2LjAw"><path d="M0 0h1440v576H0z"/></clipPath></defs><defs><clipPath id="cpOC4yMnwxNDM0LjUyfDUuNDh8NTY3Ljc4"><path d="M8.22 5.48h1426.3v562.3H8.22z"/></clipPath></defs><g clip-path="url(#cpOC4yMnwxNDM0LjUyfDUuNDh8NTY3Ljc4)"><path style="stroke-width:1.07;stroke:#fff;fill:#fff" d="M8.22 5.48h1426.3v562.3H8.22z"/><path style="stroke-width:1.07;stroke:#ccc;stroke-linecap:square;stroke-linejoin:miter;fill:#ccc" d="M372.9 439.99h16.21v102.24H372.9zM470.15 337.75h16.21v204.47h-16.21z"/><path style="stroke-width:1.07;stroke:#ccc;stroke-linecap:square;stroke-linejoin:miter;fill:#ccc" d="M486.35 439.99h16.21v102.24h-16.21zM567.39 439.99h16.21v102.24h-16.21zM599.81 337.75h16.21v204.47h-16.21zM616.02 439.99h16.21v102.24h-16.21zM632.23 31.04h16.21v511.18h-16.21z"/><path style="stroke-width:1.07;stroke:#ccc;stroke-linecap:square;stroke-linejoin:miter;fill:#ccc" d="M648.43 235.51h16.21v306.71h-16.21zM680.85 235.51h16.21v306.71h-16.21z"/><path style="stroke-width:1.07;stroke:#ccc;stroke-linecap:square;stroke-linejoin:miter;fill:#ccc" d="M697.06 337.75h16.21v204.47h-16.21zM713.27 235.51h16.21v306.71h-16.21zM745.68 337.75h16.21v204.47h-16.21zM761.89 439.99h16.21v102.24h-16.21zM778.1 439.99h16.21v102.24H778.1z"/><path style="stroke-width:1.07;stroke:#ccc;stroke-linecap:square;stroke-linejoin:miter;fill:#ccc" d="M794.31 235.51h16.21v306.71h-16.21z"/><path style="stroke-width:1.07;stroke:#ccc;stroke-linecap:square;stroke-linejoin:miter;fill:#ccc" d="M810.51 337.75h16.21v204.47h-16.21zM826.72 337.75h16.21v204.47h-16.21zM859.14 439.99h16.21v102.24h-16.21zM875.35 439.99h16.21v102.24h-16.21zM907.76 439.99h16.21v102.24h-16.21z"/></g></svg>