<svg xmlns="http://www.w3.org/2000/svg" class="svglite" width="1920" height="768" viewBox="0 0 1440 576"><defs><style>.svglite rect{fill:none;stroke:#000;stroke-linecap:round;stroke-linejoin:round;stroke-miterlimit:10}</style></defs><rect width="100%" height="100%" style="stroke:none;fill:none"/><defs><clipPath id="cpMC4wMHwxNDQwLjAwfDAuMDB8NTc2LjAw"><path d="M0 0h1440v576H0z"/></clipPath></defs><defs><clipPath id="cpOC4yMnwxNDM0LjUyfDUuNDh8NTY3Ljc4"><path d="M8.22 5.48h1426.3v562.3H8.22z"/></clipPath></defs><g clip-path="url(#cpOC4yMnwxNDM0LjUyfDUuNDh8NTY3Ljc4)"><path style="stroke-width:1.07;stroke:#fff;fill:#fff" d="M8.22 5.48h1426.3v562.3H8.22z"/><path style="stroke-width:1.07;stroke:#ccc;stroke-linecap:square;stroke-linejoin:miter;fill:#ccc" d="M291.86 536.84h16.21v5.38h-16.21zM324.27 536.84h16.21v5.38h-16.21zM356.69 536.84h16.21v5.38h-16.21zM372.9 536.84h16.21v5.38H372.9zM405.31 536.84h16.21v5.38h-16.21zM437.73 526.08h16.21v16.14h-16.21zM453.94 531.46h16.21v10.76h-16.21zM470.15 515.32h16.21v26.9h-16.21z"/><path style="stroke-width:1.07;stroke:#ccc;stroke-linecap:square;stroke-linejoin:miter;fill:#ccc" d="M486.35 531.46h16.21v10.76h-16.21zM502.56 499.17h16.21v43.05h-16.21zM518.77 536.84h16.21v5.38h-16.21zM534.98 499.17h16.21v43.05h-16.21zM551.19 493.79h16.21v48.43h-16.21z"/><path style="stroke-width:1.07;stroke:#ccc;stroke-linecap:square;stroke-linejoin:miter;fill:#ccc" d="M567.39 472.27h16.21v69.95h-16.21zM583.6 434.6h16.21v107.62H583.6z"/><path style="stroke-width:1.07;stroke:#ccc;stroke-linecap:square;stroke-linejoin:miter;fill:#ccc" d="M599.81 343.13h16.21v199.09h-16.21zM616.02 326.99h16.21v215.23h-16.21zM632.23 289.32h16.21v252.9h-16.21z"/><path style="stroke-width:1.07;stroke:#ccc;stroke-linecap:square;stroke-linejoin:miter;fill:#ccc" d="M648.43 273.18h16.21v269.04h-16.21zM664.64 213.99h16.21v328.23h-16.21zM680.85 230.13h16.21v312.09h-16.21z"/><path style="stroke-width:1.07;stroke:#ccc;stroke-linecap:square;stroke-linejoin:miter;fill:#ccc" d="M697.06 165.56h16.21v376.66h-16.21zM713.27 176.32h16.21v365.9h-16.21z"/><path style="stroke-width:1.07;stroke:#ccc;stroke-linecap:square;stroke-linejoin:miter;fill:#ccc" d="M729.47 95.61h16.21v446.61h-16.21z"/><path style="stroke-width:1.07;stroke:#ccc;stroke-linecap:square;stroke-linejoin:miter;fill:#ccc" d="M745.68 235.51h16.21v306.71h-16.21zM761.89 240.89h16.21v301.33h-16.21zM778.1 283.94h16.21v258.28H778.1z"/><path style="stroke-width:1.07;stroke:#ccc;stroke-linecap:square;stroke-linejoin:miter;fill:#ccc" d="M794.31 257.04h16.21v285.19h-16.21z"/><path style="stroke-width:1.07;stroke:#ccc;stroke-linecap:square;stroke-linejoin:miter;fill:#ccc" d="M810.51 364.65h16.21v177.57h-16.21zM826.72 439.99h16.21v102.24h-16.21z"/><path style="stroke-width:1.07;stroke:#ccc;stroke-linecap:square;stroke-linejoin:miter;fill:#ccc" d="M842.93 429.22h16.21v113h-16.21zM859.14 439.99h16.21v102.24h-16.21zM875.35 477.65h16.21v64.57h-16.21z"/><path style="stroke-width:1.07;stroke:#ccc;stroke-linecap:square;stroke-linejoin:miter;fill:#ccc" d="M891.55 493.79h16.21v48.43h-16.21zM907.76 515.32h16.21v26.9h-16.21zM923.97 526.08h16.21v16.14h-16.21z"/><path style="stroke-width:1.07;stroke:#ccc;stroke-linecap:square;stroke-linejoin:miter;fill:#ccc" d="M940.18 520.7h16.21v21.52h-16.21zM956.39 483.03h16.21v59.19h-16.21z"/><path style="stroke-width:1.07;stroke:#ccc;stroke-linecap:square;stroke-linejoin:miter;fill:#ccc" d="M972.59 520.7h16.21v21.52h-16.21z"/><path style="stroke-width:1.07;stroke:#ccc;stroke-linecap:square;stroke-linejoin:miter;fill:#ccc" d="M988.8 526.08h16.21v16.14H988.8zM1021.22 536.84h16.21v5.38h-16.21zM1037.43 536.84h16.21v5.38h-16.21z"/><path style="stroke-width:1.07;stroke:#ccc;stroke-linecap:square;stroke-linejoin:miter;fill:#ccc" d="M1053.63 536.84h16.21v5.38h-16.21z"/></g></svg>