<svg xmlns="http://www.w3.org/2000/svg" class="svglite" width="1920" height="768" viewBox="0 0 1440 576"><defs><style>.svglite rect{fill:none;stroke:#000;stroke-linecap:round;stroke-linejoin:round;stroke-miterlimit:10}</style></defs><rect width="100%" height="100%" style="stroke:none;fill:none"/><defs><clipPath id="cpMC4wMHwxNDQwLjAwfDAuMDB8NTc2LjAw"><path d="M0 0h1440v576H0z"/></clipPath></defs><defs><clipPath id="cpOC4yMnwxNDM0LjUyfDUuNDh8NTY3Ljc4"><path d="M8.22 5.48h1426.3v562.3H8.22z"/></clipPath></defs><g clip-path="url(#cpOC4yMnwxNDM0LjUyfDUuNDh8NTY3Ljc4)"><path style="stroke-width:1.07;stroke:#fff;fill:#fff" d="M8.22 5.48h1426.3v562.3H8.22z"/><path style="stroke-width:1.07;stroke:#ccc;stroke-linecap:square;stroke-linejoin:miter;fill:#ccc" d="M291.86 537.57h16.21v4.65h-16.21zM324.27 537.57h16.21v4.65h-16.21zM356.69 537.57h16.21v4.65h-16.21zM372.9 537.57h16.21v4.65H372.9zM405.31 537.57h16.21v4.65h-16.21zM437.73 528.28h16.21v13.94h-16.21zM453.94 532.93h16.21v9.29h-16.21zM470.15 509.69h16.21v32.53h-16.21z"/><path style="stroke-width:1.07;stroke:#ccc;stroke-linecap:square;stroke-linejoin:miter;fill:#ccc" d="M486.35 528.28h16.21v13.94h-16.21zM502.56 500.4h16.21v41.82h-16.21zM518.77 537.57h16.21v4.65h-16.21zM534.98 495.75h16.21v46.47h-16.21zM551.19 481.81h16.21v60.41h-16.21z"/><path style="stroke-width:1.07;stroke:#ccc;stroke-linecap:square;stroke-linejoin:miter;fill:#ccc" d="M567.39 472.51h16.21v69.71h-16.21zM583.6 430.69h16.21v111.53H583.6z"/><path style="stroke-width:1.07;stroke:#ccc;stroke-linecap:square;stroke-linejoin:miter;fill:#ccc" d="M599.81 351.69h16.21v190.53h-16.21zM616.02 337.75h16.21v204.47h-16.21zM632.23 281.98h16.21v260.24h-16.21z"/><path style="stroke-width:1.07;stroke:#ccc;stroke-linecap:square;stroke-linejoin:miter;fill:#ccc" d="M648.43 272.69h16.21v269.53h-16.21zM664.64 221.57h16.21v320.65h-16.21zM680.85 221.57h16.21v320.65h-16.21z"/><path style="stroke-width:1.07;stroke:#ccc;stroke-linecap:square;stroke-linejoin:miter;fill:#ccc" d="M697.06 161.16h16.21v381.06h-16.21zM713.27 179.75h16.21v362.48h-16.21z"/><path style="stroke-width:1.07;stroke:#ccc;stroke-linecap:square;stroke-linejoin:miter;fill:#ccc" d="M729.47 142.57h16.21v399.65h-16.21z"/><path style="stroke-width:1.07;stroke:#ccc;stroke-linecap:square;stroke-linejoin:miter;fill:#ccc" d="M745.68 226.22h16.21v316h-16.21zM761.89 230.86h16.21v311.36h-16.21zM778.1 263.39h16.21v278.83H778.1z"/><path style="stroke-width:1.07;stroke:#ccc;stroke-linecap:square;stroke-linejoin:miter;fill:#ccc" d="M794.31 258.75h16.21v283.47h-16.21z"/><path style="stroke-width:1.07;stroke:#ccc;stroke-linecap:square;stroke-linejoin:miter;fill:#ccc" d="M810.51 347.04h16.21v195.18h-16.21zM826.72 430.69h16.21v111.53h-16.21z"/><path style="stroke-width:1.07;stroke:#ccc;stroke-linecap:square;stroke-linejoin:miter;fill:#ccc" d="M842.93 430.69h16.21v111.53h-16.21zM859.14 444.63h16.21v97.59h-16.21zM875.35 486.46h16.21v55.77h-16.21z"/><path style="stroke-width:1.07;stroke:#ccc;stroke-linecap:square;stroke-linejoin:miter;fill:#ccc" d="M891.55 486.46h16.21v55.77h-16.21zM907.76 514.34h16.21v27.88h-16.21zM923.97 528.28h16.21v13.94h-16.21z"/><path style="stroke-width:1.07;stroke:#ccc;stroke-linecap:square;stroke-linejoin:miter;fill:#ccc" d="M940.18 523.63h16.21v18.59h-16.21zM956.39 491.1h16.21v51.12h-16.21z"/><path style="stroke-width:1.07;stroke:#ccc;stroke-linecap:square;stroke-linejoin:miter;fill:#ccc" d="M972.59 523.63h16.21v18.59h-16.21z"/><path style="stroke-width:1.07;stroke:#ccc;stroke-linecap:square;stroke-linejoin:miter;fill:#ccc" d="M988.8 528.28h16.21v13.94H988.8zM1021.22 537.57h16.21v4.65h-16.21zM1037.43 537.57h16.21v4.65h-16.21z"/><path style="stroke-width:1.07;stroke:#ccc;stroke-linecap:square;stroke-linejoin:miter;fill:#ccc" d="M1053.63 537.57h16.21v4.65h-16.21z"/></g></svg>