<svg xmlns="http://www.w3.org/2000/svg" class="svglite" width="1920" height="768" viewBox="0 0 1440 576"><defs><style>.svglite rect{fill:none;stroke:#000;stroke-linecap:round;stroke-linejoin:round;stroke-miterlimit:10}</style></defs><rect width="100%" height="100%" style="stroke:none;fill:none"/><defs><clipPath id="cpMC4wMHwxNDQwLjAwfDAuMDB8NTc2LjAw"><path d="M0 0h1440v576H0z"/></clipPath></defs><defs><clipPath id="cpOC4yMnwxNDM0LjUyfDUuNDh8NTY3Ljc4"><path d="M8.22 5.48h1426.3v562.3H8.22z"/></clipPath></defs><g clip-path="url(#cpOC4yMnwxNDM0LjUyfDUuNDh8NTY3Ljc4)"><path style="stroke-width:1.07;stroke:#fff;fill:#fff" d="M8.22 5.48h1426.3v562.3H8.22z"/><path style="stroke-width:1.07;stroke:#ccc;stroke-linecap:square;stroke-linejoin:miter;fill:#ccc" d="M291.86 538.29h16.21v3.93h-16.21zM324.27 538.29h16.21v3.93h-16.21zM356.69 538.29h16.21v3.93h-16.21zM372.9 534.36h16.21v7.86H372.9zM389.11 538.29h16.21v3.93h-16.21z"/><path style="stroke-width:1.07;stroke:#ccc;stroke-linecap:square;stroke-linejoin:miter;fill:#ccc" d="M405.31 538.29h16.21v3.93h-16.21zM421.52 538.29h16.21v3.93h-16.21zM437.73 530.43h16.21v11.8h-16.21zM453.94 534.36h16.21v7.86h-16.21zM470.15 506.83h16.21v35.39h-16.21z"/><path style="stroke-width:1.07;stroke:#ccc;stroke-linecap:square;stroke-linejoin:miter;fill:#ccc" d="M486.35 526.49h16.21v15.73h-16.21zM502.56 502.9h16.21v39.32h-16.21zM518.77 538.29h16.21v3.93h-16.21zM534.98 495.04h16.21v47.19h-16.21zM551.19 483.24h16.21v58.98h-16.21z"/><path style="stroke-width:1.07;stroke:#ccc;stroke-linecap:square;stroke-linejoin:miter;fill:#ccc" d="M567.39 471.44h16.21v70.78h-16.21zM583.6 432.12h16.21v110.1H583.6z"/><path style="stroke-width:1.07;stroke:#ccc;stroke-linecap:square;stroke-linejoin:miter;fill:#ccc" d="M599.81 345.61h16.21v196.61h-16.21zM616.02 349.54h16.21v192.68h-16.21zM632.23 274.83h16.21v267.39h-16.21z"/><path style="stroke-width:1.07;stroke:#ccc;stroke-linecap:square;stroke-linejoin:miter;fill:#ccc" d="M648.43 263.04h16.21v279.18h-16.21zM664.64 223.72h16.21v318.51h-16.21zM680.85 196.19h16.21v346.03h-16.21z"/><path style="stroke-width:1.07;stroke:#ccc;stroke-linecap:square;stroke-linejoin:miter;fill:#ccc" d="M697.06 160.8h16.21v381.42h-16.21zM713.27 176.53h16.21v365.69h-16.21z"/><path style="stroke-width:1.07;stroke:#ccc;stroke-linecap:square;stroke-linejoin:miter;fill:#ccc" d="M729.47 160.8h16.21v381.42h-16.21z"/><path style="stroke-width:1.07;stroke:#ccc;stroke-linecap:square;stroke-linejoin:miter;fill:#ccc" d="M745.68 243.38h16.21v298.85h-16.21zM761.89 235.51h16.21v306.71h-16.21zM778.1 239.44h16.21v302.78H778.1z"/><path style="stroke-width:1.07;stroke:#ccc;stroke-linecap:square;stroke-linejoin:miter;fill:#ccc" d="M794.31 266.97h16.21v275.25h-16.21z"/><path style="stroke-width:1.07;stroke:#ccc;stroke-linecap:square;stroke-linejoin:miter;fill:#ccc" d="M810.51 361.34h16.21v180.88h-16.21zM826.72 428.19h16.21v114.03h-16.21z"/><path style="stroke-width:1.07;stroke:#ccc;stroke-linecap:square;stroke-linejoin:miter;fill:#ccc" d="M842.93 432.12h16.21v110.1h-16.21zM859.14 451.78h16.21v90.44h-16.21zM875.35 471.44h16.21v70.78h-16.21z"/><path style="stroke-width:1.07;stroke:#ccc;stroke-linecap:square;stroke-linejoin:miter;fill:#ccc" d="M891.55 483.24h16.21v58.98h-16.21zM907.76 518.63h16.21v23.59h-16.21zM923.97 530.43h16.21v11.8h-16.21z"/><path style="stroke-width:1.07;stroke:#ccc;stroke-linecap:square;stroke-linejoin:miter;fill:#ccc" d="M940.18 526.49h16.21v15.73h-16.21zM956.39 495.04h16.21v47.19h-16.21z"/><path style="stroke-width:1.07;stroke:#ccc;stroke-linecap:square;stroke-linejoin:miter;fill:#ccc" d="M972.59 526.49h16.21v15.73h-16.21z"/><path style="stroke-width:1.07;stroke:#ccc;stroke-linecap:square;stroke-linejoin:miter;fill:#ccc" d="M988.8 530.43h16.21v11.8H988.8zM1005.01 538.29h16.21v3.93h-16.21zM1021.22 538.29h16.21v3.93h-16.21zM1037.43 538.29h16.21v3.93h-16.21z"/><path style="stroke-width:1.07;stroke:#ccc;stroke-linecap:square;stroke-linejoin:miter;fill:#ccc" d="M1053.63 538.29h16.21v3.93h-16.21z"/></g></svg>