<svg xmlns="http://www.w3.org/2000/svg" class="svglite" width="1920" height="768" viewBox="0 0 1440 576"><defs><style>.svglite rect{fill:none;stroke:#000;stroke-linecap:round;stroke-linejoin:round;stroke-miterlimit:10}</style></defs><rect width="100%" height="100%" style="stroke:none;fill:none"/><defs><clipPath id="cpMC4wMHwxNDQwLjAwfDAuMDB8NTc2LjAw"><path d="M0 0h1440v576H0z"/></clipPath></defs><defs><clipPath id="cpOC4yMnwxNDM0LjUyfDUuNDh8NTY3Ljc4"><path d="M8.22 5.48h1426.3v562.3H8.22z"/></clipPath></defs><g clip-path="url(#cpOC4yMnwxNDM0LjUyfDUuNDh8NTY3Ljc4)"><path style="stroke-width:1.07;stroke:#fff;fill:#fff" d="M8.22 5.48h1426.3v562.3H8.22z"/><path style="stroke-width:1.07;stroke:#ccc;stroke-linecap:square;stroke-linejoin:miter;fill:#ccc" d="M291.86 538.92h16.21v3.3h-16.21zM324.27 538.92h16.21v3.3h-16.21zM356.69 538.92h16.21v3.3h-16.21zM372.9 535.63h16.21v6.6H372.9zM389.11 538.92h16.21v3.3h-16.21z"/><path style="stroke-width:1.07;stroke:#ccc;stroke-linecap:square;stroke-linejoin:miter;fill:#ccc" d="M405.31 538.92h16.21v3.3h-16.21zM421.52 535.63h16.21v6.6h-16.21zM437.73 532.33h16.21v9.89h-16.21zM453.94 532.33h16.21v9.89h-16.21zM470.15 509.24h16.21v32.98h-16.21z"/><path style="stroke-width:1.07;stroke:#ccc;stroke-linecap:square;stroke-linejoin:miter;fill:#ccc" d="M486.35 515.84h16.21v26.38h-16.21zM502.56 505.94h16.21v36.28h-16.21zM518.77 529.03h16.21v13.19h-16.21zM534.98 496.05h16.21v46.17h-16.21zM551.19 482.86h16.21v59.36h-16.21z"/><path style="stroke-width:1.07;stroke:#ccc;stroke-linecap:square;stroke-linejoin:miter;fill:#ccc" d="M567.39 469.67h16.21v72.56h-16.21zM583.6 439.99h16.21v102.24H583.6z"/><path style="stroke-width:1.07;stroke:#ccc;stroke-linecap:square;stroke-linejoin:miter;fill:#ccc" d="M599.81 374.03h16.21v168.2h-16.21zM616.02 344.34h16.21v197.88h-16.21zM632.23 261.9h16.21v280.33h-16.21z"/><path style="stroke-width:1.07;stroke:#ccc;stroke-linecap:square;stroke-linejoin:miter;fill:#ccc" d="M648.43 281.68h16.21v260.54h-16.21zM664.64 225.62h16.21v316.6h-16.21zM680.85 195.94h16.21v346.29h-16.21z"/><path style="stroke-width:1.07;stroke:#ccc;stroke-linecap:square;stroke-linejoin:miter;fill:#ccc" d="M697.06 159.66h16.21v382.56h-16.21zM713.27 162.96h16.21v379.26h-16.21z"/><path style="stroke-width:1.07;stroke:#ccc;stroke-linecap:square;stroke-linejoin:miter;fill:#ccc" d="M729.47 186.04h16.21v356.18h-16.21z"/><path style="stroke-width:1.07;stroke:#ccc;stroke-linecap:square;stroke-linejoin:miter;fill:#ccc" d="M745.68 258.6h16.21v283.62h-16.21zM761.89 215.72h16.21v326.5h-16.21zM778.1 222.32h16.21v319.9H778.1z"/><path style="stroke-width:1.07;stroke:#ccc;stroke-linecap:square;stroke-linejoin:miter;fill:#ccc" d="M794.31 271.79h16.21v270.43h-16.21z"/><path style="stroke-width:1.07;stroke:#ccc;stroke-linecap:square;stroke-linejoin:miter;fill:#ccc" d="M810.51 357.54h16.21v184.69h-16.21zM826.72 410.3h16.21v131.92h-16.21z"/><path style="stroke-width:1.07;stroke:#ccc;stroke-linecap:square;stroke-linejoin:miter;fill:#ccc" d="M842.93 436.69h16.21v105.53h-16.21zM859.14 459.77h16.21v82.45h-16.21zM875.35 469.67h16.21v72.56h-16.21z"/><path style="stroke-width:1.07;stroke:#ccc;stroke-linecap:square;stroke-linejoin:miter;fill:#ccc" d="M891.55 479.56h16.21v62.66h-16.21zM907.76 519.14h16.21v23.09h-16.21zM923.97 529.03h16.21v13.19h-16.21z"/><path style="stroke-width:1.07;stroke:#ccc;stroke-linecap:square;stroke-linejoin:miter;fill:#ccc" d="M940.18 515.84h16.21v26.38h-16.21zM956.39 502.65h16.21v39.58h-16.21z"/><path style="stroke-width:1.07;stroke:#ccc;stroke-linecap:square;stroke-linejoin:miter;fill:#ccc" d="M972.59 529.03h16.21v13.19h-16.21z"/><path style="stroke-width:1.07;stroke:#ccc;stroke-linecap:square;stroke-linejoin:miter;fill:#ccc" d="M988.8 532.33h16.21v9.89H988.8zM1005.01 538.92h16.21v3.3h-16.21zM1021.22 538.92h16.21v3.3h-16.21zM1037.43 535.63h16.21v6.6h-16.21z"/><path style="stroke-width:1.07;stroke:#ccc;stroke-linecap:square;stroke-linejoin:miter;fill:#ccc" d="M1053.63 538.92h16.21v3.3h-16.21zM1231.92 538.92h16.21v3.3h-16.21z"/></g></svg>