<svg xmlns="http://www.w3.org/2000/svg" class="svglite" width="1920" height="768" viewBox="0 0 1440 576"><defs><style>.svglite rect{fill:none;stroke:#000;stroke-linecap:round;stroke-linejoin:round;stroke-miterlimit:10}</style></defs><rect width="100%" height="100%" style="stroke:none;fill:none"/><defs><clipPath id="cpMC4wMHwxNDQwLjAwfDAuMDB8NTc2LjAw"><path d="M0 0h1440v576H0z"/></clipPath></defs><defs><clipPath id="cpOC4yMnwxNDM0LjUyfDUuNDh8NTY3Ljc4"><path d="M8.22 5.48h1426.3v562.3H8.22z"/></clipPath></defs><g clip-path="url(#cpOC4yMnwxNDM0LjUyfDUuNDh8NTY3Ljc4)"><path style="stroke-width:1.07;stroke:#fff;fill:#fff" d="M8.22 5.48h1426.3v562.3H8.22z"/><path style="stroke-width:1.07;stroke:#ccc;stroke-linecap:square;stroke-linejoin:miter;fill:#ccc" d="M291.86 539.46h16.21v2.76h-16.21zM324.27 539.46h16.21v2.76h-16.21zM356.69 539.46h16.21v2.76h-16.21zM372.9 536.7h16.21v5.53H372.9zM389.11 539.46h16.21v2.76h-16.21z"/><path style="stroke-width:1.07;stroke:#ccc;stroke-linecap:square;stroke-linejoin:miter;fill:#ccc" d="M405.31 539.46h16.21v2.76h-16.21zM421.52 531.17h16.21v11.05h-16.21zM437.73 533.93h16.21v8.29h-16.21zM453.94 531.17h16.21v11.05h-16.21zM470.15 514.59h16.21v27.63h-16.21z"/><path style="stroke-width:1.07;stroke:#ccc;stroke-linecap:square;stroke-linejoin:miter;fill:#ccc" d="M486.35 514.59h16.21v27.63h-16.21zM502.56 509.06h16.21v33.16h-16.21zM518.77 525.64h16.21v16.58h-16.21zM534.98 495.25h16.21v46.97h-16.21zM551.19 470.38h16.21v71.84h-16.21z"/><path style="stroke-width:1.07;stroke:#ccc;stroke-linecap:square;stroke-linejoin:miter;fill:#ccc" d="M567.39 467.62h16.21v74.61h-16.21zM583.6 437.22h16.21v105H583.6z"/><path style="stroke-width:1.07;stroke:#ccc;stroke-linecap:square;stroke-linejoin:miter;fill:#ccc" d="M599.81 390.25h16.21v151.97h-16.21zM616.02 351.56h16.21v190.66h-16.21zM632.23 265.91h16.21v276.32h-16.21z"/><path style="stroke-width:1.07;stroke:#ccc;stroke-linecap:square;stroke-linejoin:miter;fill:#ccc" d="M648.43 263.14h16.21v279.08h-16.21zM664.64 241.04h16.21v301.18h-16.21zM680.85 174.72h16.21v367.5h-16.21z"/><path style="stroke-width:1.07;stroke:#ccc;stroke-linecap:square;stroke-linejoin:miter;fill:#ccc" d="M697.06 149.85h16.21v392.37h-16.21zM713.27 174.72h16.21v367.5h-16.21z"/><path style="stroke-width:1.07;stroke:#ccc;stroke-linecap:square;stroke-linejoin:miter;fill:#ccc" d="M729.47 180.25h16.21v361.97h-16.21z"/><path style="stroke-width:1.07;stroke:#ccc;stroke-linecap:square;stroke-linejoin:miter;fill:#ccc" d="M745.68 249.33h16.21v292.89h-16.21zM761.89 207.88h16.21v334.34h-16.21zM778.1 216.17h16.21v326.05H778.1z"/><path style="stroke-width:1.07;stroke:#ccc;stroke-linecap:square;stroke-linejoin:miter;fill:#ccc" d="M794.31 290.77h16.21v251.45h-16.21z"/><path style="stroke-width:1.07;stroke:#ccc;stroke-linecap:square;stroke-linejoin:miter;fill:#ccc" d="M810.51 362.62h16.21v179.6h-16.21zM826.72 417.88h16.21v124.34h-16.21z"/><path style="stroke-width:1.07;stroke:#ccc;stroke-linecap:square;stroke-linejoin:miter;fill:#ccc" d="M842.93 437.22h16.21v105h-16.21zM859.14 462.09h16.21v80.13h-16.21zM875.35 464.85h16.21v77.37h-16.21z"/><path style="stroke-width:1.07;stroke:#ccc;stroke-linecap:square;stroke-linejoin:miter;fill:#ccc" d="M891.55 481.43h16.21v60.79h-16.21zM907.76 520.12h16.21v22.11h-16.21zM923.97 528.41h16.21v13.82h-16.21z"/><path style="stroke-width:1.07;stroke:#ccc;stroke-linecap:square;stroke-linejoin:miter;fill:#ccc" d="M940.18 514.59h16.21v27.63h-16.21zM956.39 503.54h16.21v38.68h-16.21z"/><path style="stroke-width:1.07;stroke:#ccc;stroke-linecap:square;stroke-linejoin:miter;fill:#ccc" d="M972.59 531.17h16.21v11.05h-16.21z"/><path style="stroke-width:1.07;stroke:#ccc;stroke-linecap:square;stroke-linejoin:miter;fill:#ccc" d="M988.8 533.93h16.21v8.29H988.8zM1005.01 539.46h16.21v2.76h-16.21zM1021.22 539.46h16.21v2.76h-16.21zM1037.43 536.7h16.21v5.53h-16.21z"/><path style="stroke-width:1.07;stroke:#ccc;stroke-linecap:square;stroke-linejoin:miter;fill:#ccc" d="M1053.63 539.46h16.21v2.76h-16.21zM1231.92 539.46h16.21v2.76h-16.21z"/></g></svg>