<svg xmlns="http://www.w3.org/2000/svg" class="svglite" width="1920" height="768" viewBox="0 0 1440 576"><defs><style>.svglite rect{fill:none;stroke:#000;stroke-linecap:round;stroke-linejoin:round;stroke-miterlimit:10}</style></defs><rect width="100%" height="100%" style="stroke:none;fill:none"/><defs><clipPath id="cpMC4wMHwxNDQwLjAwfDAuMDB8NTc2LjAw"><path d="M0 0h1440v576H0z"/></clipPath></defs><defs><clipPath id="cpOC4yMnwxNDM0LjUyfDUuNDh8NTY3Ljc4"><path d="M8.22 5.48h1426.3v562.3H8.22z"/></clipPath></defs><g clip-path="url(#cpOC4yMnwxNDM0LjUyfDUuNDh8NTY3Ljc4)"><path style="stroke-width:1.07;stroke:#fff;fill:#fff" d="M8.22 5.48h1426.3v562.3H8.22z"/><path style="stroke-width:1.07;stroke:#ccc;stroke-linecap:square;stroke-linejoin:miter;fill:#ccc" d="M178.4 539.9h16.21v2.32H178.4zM291.86 539.9h16.21v2.32h-16.21zM324.27 539.9h16.21v2.32h-16.21zM356.69 537.57h16.21v4.65h-16.21zM372.9 537.57h16.21v4.65H372.9zM389.11 539.9h16.21v2.32h-16.21z"/><path style="stroke-width:1.07;stroke:#ccc;stroke-linecap:square;stroke-linejoin:miter;fill:#ccc" d="M405.31 539.9h16.21v2.32h-16.21zM421.52 530.6h16.21v11.62h-16.21zM437.73 532.93h16.21v9.29h-16.21zM453.94 532.93h16.21v9.29h-16.21zM470.15 514.34h16.21v27.88h-16.21z"/><path style="stroke-width:1.07;stroke:#ccc;stroke-linecap:square;stroke-linejoin:miter;fill:#ccc" d="M486.35 514.34h16.21v27.88h-16.21zM502.56 512.02h16.21v30.21h-16.21zM518.77 525.96h16.21v16.26h-16.21zM534.98 491.1h16.21v51.12h-16.21zM551.19 479.49h16.21v62.74h-16.21z"/><path style="stroke-width:1.07;stroke:#ccc;stroke-linecap:square;stroke-linejoin:miter;fill:#ccc" d="M567.39 460.9h16.21v81.32h-16.21zM583.6 435.34h16.21v106.88H583.6z"/><path style="stroke-width:1.07;stroke:#ccc;stroke-linecap:square;stroke-linejoin:miter;fill:#ccc" d="M599.81 386.54h16.21v155.68h-16.21zM616.02 330.78h16.21v211.44h-16.21zM632.23 270.37h16.21v271.86h-16.21z"/><path style="stroke-width:1.07;stroke:#ccc;stroke-linecap:square;stroke-linejoin:miter;fill:#ccc" d="M648.43 265.72h16.21v276.5h-16.21zM664.64 244.81h16.21v297.42h-16.21zM680.85 191.36h16.21v350.86h-16.21z"/><path style="stroke-width:1.07;stroke:#ccc;stroke-linecap:square;stroke-linejoin:miter;fill:#ccc" d="M697.06 154.19h16.21v388.03h-16.21zM713.27 179.75h16.21v362.48h-16.21z"/><path style="stroke-width:1.07;stroke:#ccc;stroke-linecap:square;stroke-linejoin:miter;fill:#ccc" d="M729.47 196.01h16.21v346.21h-16.21z"/><path style="stroke-width:1.07;stroke:#ccc;stroke-linecap:square;stroke-linejoin:miter;fill:#ccc" d="M745.68 242.48h16.21v299.74h-16.21zM761.89 200.66h16.21v341.56h-16.21zM778.1 219.25h16.21v322.97H778.1z"/><path style="stroke-width:1.07;stroke:#ccc;stroke-linecap:square;stroke-linejoin:miter;fill:#ccc" d="M794.31 295.92h16.21v246.3h-16.21z"/><path style="stroke-width:1.07;stroke:#ccc;stroke-linecap:square;stroke-linejoin:miter;fill:#ccc" d="M810.51 349.37h16.21v192.86h-16.21zM826.72 409.78h16.21v132.44h-16.21z"/><path style="stroke-width:1.07;stroke:#ccc;stroke-linecap:square;stroke-linejoin:miter;fill:#ccc" d="M842.93 437.66h16.21v104.56h-16.21zM859.14 463.22h16.21v79h-16.21zM875.35 470.19h16.21v72.03h-16.21z"/><path style="stroke-width:1.07;stroke:#ccc;stroke-linecap:square;stroke-linejoin:miter;fill:#ccc" d="M891.55 477.16h16.21v65.06h-16.21zM907.76 518.99h16.21v23.24h-16.21zM923.97 530.6h16.21v11.62h-16.21z"/><path style="stroke-width:1.07;stroke:#ccc;stroke-linecap:square;stroke-linejoin:miter;fill:#ccc" d="M940.18 516.66h16.21v25.56h-16.21zM956.39 507.37h16.21v34.85h-16.21z"/><path style="stroke-width:1.07;stroke:#ccc;stroke-linecap:square;stroke-linejoin:miter;fill:#ccc" d="M972.59 528.28h16.21v13.94h-16.21z"/><path style="stroke-width:1.07;stroke:#ccc;stroke-linecap:square;stroke-linejoin:miter;fill:#ccc" d="M988.8 532.93h16.21v9.29H988.8zM1005.01 539.9h16.21v2.32h-16.21zM1021.22 539.9h16.21v2.32h-16.21zM1037.43 537.57h16.21v4.65h-16.21z"/><path style="stroke-width:1.07;stroke:#ccc;stroke-linecap:square;stroke-linejoin:miter;fill:#ccc" d="M1053.63 537.57h16.21v4.65h-16.21zM1134.67 539.9h16.21v2.32h-16.21zM1183.3 539.9h16.21v2.32h-16.21zM1231.92 539.9h16.21v2.32h-16.21z"/></g></svg>