<svg xmlns="http://www.w3.org/2000/svg" class="svglite" width="1920" height="768" viewBox="0 0 1440 576"><defs><style>.svglite rect{fill:none;stroke:#000;stroke-linecap:round;stroke-linejoin:round;stroke-miterlimit:10}</style></defs><rect width="100%" height="100%" style="stroke:none;fill:none"/><defs><clipPath id="cpMC4wMHwxNDQwLjAwfDAuMDB8NTc2LjAw"><path d="M0 0h1440v576H0z"/></clipPath></defs><defs><clipPath id="cpOC4yMnwxNDM0LjUyfDUuNDh8NTY3Ljc4"><path d="M8.22 5.48h1426.3v562.3H8.22z"/></clipPath></defs><g clip-path="url(#cpOC4yMnwxNDM0LjUyfDUuNDh8NTY3Ljc4)"><path style="stroke-width:1.07;stroke:#fff;fill:#fff" d="M8.22 5.48h1426.3v562.3H8.22z"/><path style="stroke-width:1.07;stroke:#ccc;stroke-linecap:square;stroke-linejoin:miter;fill:#ccc" d="M178.4 540.26h16.21v1.97H178.4zM291.86 540.26h16.21v1.97h-16.21zM324.27 540.26h16.21v1.97h-16.21zM356.69 538.29h16.21v3.93h-16.21zM372.9 536.32h16.21v5.9H372.9zM389.11 540.26h16.21v1.97h-16.21z"/><path style="stroke-width:1.07;stroke:#ccc;stroke-linecap:square;stroke-linejoin:miter;fill:#ccc" d="M405.31 536.32h16.21v5.9h-16.21zM421.52 532.39h16.21v9.83h-16.21zM437.73 532.39h16.21v9.83h-16.21zM453.94 530.43h16.21v11.8h-16.21zM470.15 514.7h16.21v27.53h-16.21z"/><path style="stroke-width:1.07;stroke:#ccc;stroke-linecap:square;stroke-linejoin:miter;fill:#ccc" d="M486.35 518.63h16.21v23.59h-16.21zM502.56 510.76h16.21v31.46h-16.21zM518.77 520.59h16.21v21.63h-16.21zM534.98 493.07h16.21v49.15h-16.21zM551.19 485.21h16.21v57.02h-16.21z"/><path style="stroke-width:1.07;stroke:#ccc;stroke-linecap:square;stroke-linejoin:miter;fill:#ccc" d="M567.39 467.51h16.21v74.71h-16.21zM583.6 438.02h16.21v104.2H583.6z"/><path style="stroke-width:1.07;stroke:#ccc;stroke-linecap:square;stroke-linejoin:miter;fill:#ccc" d="M599.81 388.87h16.21v153.35h-16.21zM616.02 337.75h16.21v204.47h-16.21zM632.23 282.7h16.21v259.52h-16.21z"/><path style="stroke-width:1.07;stroke:#ccc;stroke-linecap:square;stroke-linejoin:miter;fill:#ccc" d="M648.43 266.97h16.21v275.25h-16.21zM664.64 233.55h16.21v308.68h-16.21zM680.85 194.22h16.21v348h-16.21z"/><path style="stroke-width:1.07;stroke:#ccc;stroke-linecap:square;stroke-linejoin:miter;fill:#ccc" d="M697.06 150.97h16.21v391.25h-16.21zM713.27 180.46h16.21v361.76h-16.21z"/><path style="stroke-width:1.07;stroke:#ccc;stroke-linecap:square;stroke-linejoin:miter;fill:#ccc" d="M729.47 196.19h16.21v346.03h-16.21z"/><path style="stroke-width:1.07;stroke:#ccc;stroke-linecap:square;stroke-linejoin:miter;fill:#ccc" d="M745.68 237.48h16.21v304.74h-16.21zM761.89 200.12h16.21v342.1h-16.21zM778.1 211.92h16.21v330.3H778.1z"/><path style="stroke-width:1.07;stroke:#ccc;stroke-linecap:square;stroke-linejoin:miter;fill:#ccc" d="M794.31 294.49h16.21v247.73h-16.21z"/><path style="stroke-width:1.07;stroke:#ccc;stroke-linecap:square;stroke-linejoin:miter;fill:#ccc" d="M810.51 343.65h16.21v198.57h-16.21zM826.72 404.6h16.21v137.63h-16.21z"/><path style="stroke-width:1.07;stroke:#ccc;stroke-linecap:square;stroke-linejoin:miter;fill:#ccc" d="M842.93 426.22h16.21v116h-16.21zM859.14 471.44h16.21v70.78h-16.21zM875.35 477.34h16.21v64.88h-16.21z"/><path style="stroke-width:1.07;stroke:#ccc;stroke-linecap:square;stroke-linejoin:miter;fill:#ccc" d="M891.55 475.37h16.21v66.85h-16.21zM907.76 520.59h16.21v21.63h-16.21zM923.97 528.46h16.21v13.76h-16.21z"/><path style="stroke-width:1.07;stroke:#ccc;stroke-linecap:square;stroke-linejoin:miter;fill:#ccc" d="M940.18 516.66h16.21v25.56h-16.21zM956.39 512.73h16.21v29.49h-16.21z"/><path style="stroke-width:1.07;stroke:#ccc;stroke-linecap:square;stroke-linejoin:miter;fill:#ccc" d="M972.59 528.46h16.21v13.76h-16.21z"/><path style="stroke-width:1.07;stroke:#ccc;stroke-linecap:square;stroke-linejoin:miter;fill:#ccc" d="M988.8 532.39h16.21v9.83H988.8zM1005.01 538.29h16.21v3.93h-16.21zM1021.22 540.26h16.21v1.97h-16.21zM1037.43 538.29h16.21v3.93h-16.21z"/><path style="stroke-width:1.07;stroke:#ccc;stroke-linecap:square;stroke-linejoin:miter;fill:#ccc" d="M1053.63 538.29h16.21v3.93h-16.21z"/><path style="stroke-width:1.07;stroke:#ccc;stroke-linecap:square;stroke-linejoin:miter;fill:#ccc" d="M1069.84 538.29h16.21v3.93h-16.21zM1134.67 540.26h16.21v1.97h-16.21zM1183.3 540.26h16.21v1.97h-16.21zM1231.92 540.26h16.21v1.97h-16.21zM1248.13 540.26h16.21v1.97h-16.21z"/></g></svg>