<svg xmlns="http://www.w3.org/2000/svg" class="svglite" width="1920" height="768" viewBox="0 0 1440 576"><defs><style>.svglite rect{fill:none;stroke:#000;stroke-linecap:round;stroke-linejoin:round;stroke-miterlimit:10}</style></defs><rect width="100%" height="100%" style="stroke:none;fill:none"/><defs><clipPath id="cpMC4wMHwxNDQwLjAwfDAuMDB8NTc2LjAw"><path d="M0 0h1440v576H0z"/></clipPath></defs><defs><clipPath id="cpOC4yMnwxNDM0LjUyfDUuNDh8NTY3Ljc4"><path d="M8.22 5.48h1426.3v562.3H8.22z"/></clipPath></defs><g clip-path="url(#cpOC4yMnwxNDM0LjUyfDUuNDh8NTY3Ljc4)"><path style="stroke-width:1.07;stroke:#fff;fill:#fff" d="M8.22 5.48h1426.3v562.3H8.22z"/><path style="stroke-width:1.07;stroke:#ccc;stroke-linecap:square;stroke-linejoin:miter;fill:#ccc" d="M178.4 540.55h16.21v1.68H178.4zM194.61 540.55h16.21v1.68h-16.21zM291.86 540.55h16.21v1.68h-16.21zM308.07 540.55h16.21v1.68h-16.21z"/><path style="stroke-width:1.07;stroke:#ccc;stroke-linecap:square;stroke-linejoin:miter;fill:#ccc" d="M324.27 540.55h16.21v1.68h-16.21zM356.69 537.19h16.21v5.03h-16.21zM372.9 537.19h16.21v5.03H372.9zM389.11 540.55h16.21v1.68h-16.21z"/><path style="stroke-width:1.07;stroke:#ccc;stroke-linecap:square;stroke-linejoin:miter;fill:#ccc" d="M405.31 537.19h16.21v5.03h-16.21zM421.52 533.84h16.21v8.38h-16.21zM437.73 533.84h16.21v8.38h-16.21zM453.94 532.17h16.21v10.06h-16.21zM470.15 518.76h16.21v23.46h-16.21z"/><path style="stroke-width:1.07;stroke:#ccc;stroke-linecap:square;stroke-linejoin:miter;fill:#ccc" d="M486.35 522.11h16.21v20.11h-16.21zM502.56 512.05h16.21v30.17h-16.21zM518.77 522.11h16.21v20.11h-16.21zM534.98 491.94h16.21v50.28h-16.21zM551.19 488.59h16.21v53.63h-16.21z"/><path style="stroke-width:1.07;stroke:#ccc;stroke-linecap:square;stroke-linejoin:miter;fill:#ccc" d="M567.39 466.8h16.21v75.42h-16.21zM583.6 434.96h16.21v107.26H583.6z"/><path style="stroke-width:1.07;stroke:#ccc;stroke-linecap:square;stroke-linejoin:miter;fill:#ccc" d="M599.81 379.65h16.21v162.57h-16.21zM616.02 334.4h16.21v207.83h-16.21zM632.23 289.14h16.21v253.08h-16.21z"/><path style="stroke-width:1.07;stroke:#ccc;stroke-linecap:square;stroke-linejoin:miter;fill:#ccc" d="M648.43 269.03h16.21v273.19h-16.21zM664.64 227.13h16.21v315.09h-16.21zM680.85 196.96h16.21v345.26h-16.21z"/><path style="stroke-width:1.07;stroke:#ccc;stroke-linecap:square;stroke-linejoin:miter;fill:#ccc" d="M697.06 138.3h16.21v403.92h-16.21zM713.27 160.09h16.21v382.13h-16.21z"/><path style="stroke-width:1.07;stroke:#ccc;stroke-linecap:square;stroke-linejoin:miter;fill:#ccc" d="M729.47 198.64h16.21v343.58h-16.21z"/><path style="stroke-width:1.07;stroke:#ccc;stroke-linecap:square;stroke-linejoin:miter;fill:#ccc" d="M745.68 240.54h16.21v301.68h-16.21zM761.89 198.64h16.21v343.58h-16.21zM778.1 223.78h16.21v318.44H778.1z"/><path style="stroke-width:1.07;stroke:#ccc;stroke-linecap:square;stroke-linejoin:miter;fill:#ccc" d="M794.31 299.2h16.21v243.02h-16.21z"/><path style="stroke-width:1.07;stroke:#ccc;stroke-linecap:square;stroke-linejoin:miter;fill:#ccc" d="M810.51 351.16h16.21v191.07h-16.21zM826.72 403.11h16.21v139.11h-16.21z"/><path style="stroke-width:1.07;stroke:#ccc;stroke-linecap:square;stroke-linejoin:miter;fill:#ccc" d="M842.93 424.9h16.21v117.32h-16.21zM859.14 471.83h16.21v70.39h-16.21zM875.35 483.56h16.21v58.66h-16.21z"/><path style="stroke-width:1.07;stroke:#ccc;stroke-linecap:square;stroke-linejoin:miter;fill:#ccc" d="M891.55 480.21h16.21v62.01h-16.21zM907.76 517.08h16.21v25.14h-16.21zM923.97 528.81h16.21v13.41h-16.21z"/><path style="stroke-width:1.07;stroke:#ccc;stroke-linecap:square;stroke-linejoin:miter;fill:#ccc" d="M940.18 512.05h16.21v30.17h-16.21zM956.39 513.73h16.21v28.49h-16.21z"/><path style="stroke-width:1.07;stroke:#ccc;stroke-linecap:square;stroke-linejoin:miter;fill:#ccc" d="M972.59 528.81h16.21v13.41h-16.21z"/><path style="stroke-width:1.07;stroke:#ccc;stroke-linecap:square;stroke-linejoin:miter;fill:#ccc" d="M988.8 533.84h16.21v8.38H988.8zM1005.01 537.19h16.21v5.03h-16.21zM1021.22 538.87h16.21v3.35h-16.21zM1037.43 538.87h16.21v3.35h-16.21z"/><path style="stroke-width:1.07;stroke:#ccc;stroke-linecap:square;stroke-linejoin:miter;fill:#ccc" d="M1053.63 535.52h16.21v6.7h-16.21z"/><path style="stroke-width:1.07;stroke:#ccc;stroke-linecap:square;stroke-linejoin:miter;fill:#ccc" d="M1069.84 538.87h16.21v3.35h-16.21zM1134.67 540.55h16.21v1.68h-16.21zM1183.3 540.55h16.21v1.68h-16.21zM1231.92 540.55h16.21v1.68h-16.21zM1248.13 540.55h16.21v1.68h-16.21z"/></g></svg>