<svg xmlns="http://www.w3.org/2000/svg" class="svglite" width="1920" height="768" viewBox="0 0 1440 576"><defs><style>.svglite rect{fill:none;stroke:#000;stroke-linecap:round;stroke-linejoin:round;stroke-miterlimit:10}</style></defs><rect width="100%" height="100%" style="stroke:none;fill:none"/><defs><clipPath id="cpMC4wMHwxNDQwLjAwfDAuMDB8NTc2LjAw"><path d="M0 0h1440v576H0z"/></clipPath></defs><defs><clipPath id="cpOC4yMnwxNDM0LjUyfDUuNDh8NTY3Ljc4"><path d="M8.22 5.48h1426.3v562.3H8.22z"/></clipPath></defs><g clip-path="url(#cpOC4yMnwxNDM0LjUyfDUuNDh8NTY3Ljc4)"><path style="stroke-width:1.07;stroke:#fff;fill:#fff" d="M8.22 5.48h1426.3v562.3H8.22z"/><path style="stroke-width:1.07;stroke:#ccc;stroke-linecap:square;stroke-linejoin:miter;fill:#ccc" d="M178.4 540.78h16.21v1.44H178.4zM194.61 540.78h16.21v1.44h-16.21zM275.65 540.78h16.21v1.44h-16.21zM291.86 540.78h16.21v1.44h-16.21zM308.07 539.34h16.21v2.88h-16.21z"/><path style="stroke-width:1.07;stroke:#ccc;stroke-linecap:square;stroke-linejoin:miter;fill:#ccc" d="M324.27 540.78h16.21v1.44h-16.21zM356.69 537.9h16.21v4.32h-16.21zM372.9 537.9h16.21v4.32H372.9zM389.11 539.34h16.21v2.88h-16.21z"/><path style="stroke-width:1.07;stroke:#ccc;stroke-linecap:square;stroke-linejoin:miter;fill:#ccc" d="M405.31 537.9h16.21v4.32h-16.21zM421.52 533.58h16.21v8.64h-16.21zM437.73 533.58h16.21v8.64h-16.21zM453.94 532.14h16.21v10.08h-16.21zM470.15 519.18h16.21v23.05h-16.21z"/><path style="stroke-width:1.07;stroke:#ccc;stroke-linecap:square;stroke-linejoin:miter;fill:#ccc" d="M486.35 523.5h16.21v18.72h-16.21zM502.56 511.97h16.21v30.25h-16.21zM518.77 519.18h16.21v23.05h-16.21zM534.98 493.25h16.21v48.97h-16.21zM551.19 481.73h16.21v60.5h-16.21z"/><path style="stroke-width:1.07;stroke:#ccc;stroke-linecap:square;stroke-linejoin:miter;fill:#ccc" d="M567.39 463h16.21v79.22h-16.21zM583.6 439.96h16.21v102.27H583.6z"/><path style="stroke-width:1.07;stroke:#ccc;stroke-linecap:square;stroke-linejoin:miter;fill:#ccc" d="M599.81 376.58h16.21v165.64h-16.21zM616.02 337.69h16.21v204.53h-16.21zM632.23 288.72h16.21v253.5h-16.21z"/><path style="stroke-width:1.07;stroke:#ccc;stroke-linecap:square;stroke-linejoin:miter;fill:#ccc" d="M648.43 269.99h16.21v272.23h-16.21zM664.64 241.19h16.21v301.03h-16.21zM680.85 200.86h16.21v341.36h-16.21z"/><path style="stroke-width:1.07;stroke:#ccc;stroke-linecap:square;stroke-linejoin:miter;fill:#ccc" d="M697.06 128.84h16.21v413.38h-16.21zM713.27 151.88h16.21v390.34h-16.21z"/><path style="stroke-width:1.07;stroke:#ccc;stroke-linecap:square;stroke-linejoin:miter;fill:#ccc" d="M729.47 200.86h16.21v341.36h-16.21z"/><path style="stroke-width:1.07;stroke:#ccc;stroke-linecap:square;stroke-linejoin:miter;fill:#ccc" d="M745.68 238.31h16.21v303.92h-16.21zM761.89 200.86h16.21v341.36h-16.21zM778.1 216.7h16.21v325.52H778.1z"/><path style="stroke-width:1.07;stroke:#ccc;stroke-linecap:square;stroke-linejoin:miter;fill:#ccc" d="M794.31 308.88h16.21v233.34h-16.21z"/><path style="stroke-width:1.07;stroke:#ccc;stroke-linecap:square;stroke-linejoin:miter;fill:#ccc" d="M810.51 352.09h16.21v190.13h-16.21zM826.72 405.39h16.21v136.83h-16.21z"/><path style="stroke-width:1.07;stroke:#ccc;stroke-linecap:square;stroke-linejoin:miter;fill:#ccc" d="M842.93 418.35h16.21v123.87h-16.21zM859.14 475.97h16.21v66.26h-16.21zM875.35 475.97h16.21v66.26h-16.21z"/><path style="stroke-width:1.07;stroke:#ccc;stroke-linecap:square;stroke-linejoin:miter;fill:#ccc" d="M891.55 484.61h16.21v57.61h-16.21zM907.76 519.18h16.21v23.05h-16.21zM923.97 527.82h16.21v14.4h-16.21z"/><path style="stroke-width:1.07;stroke:#ccc;stroke-linecap:square;stroke-linejoin:miter;fill:#ccc" d="M940.18 514.85h16.21v27.37h-16.21zM956.39 514.85h16.21v27.37h-16.21z"/><path style="stroke-width:1.07;stroke:#ccc;stroke-linecap:square;stroke-linejoin:miter;fill:#ccc" d="M972.59 530.7h16.21v11.52h-16.21z"/><path style="stroke-width:1.07;stroke:#ccc;stroke-linecap:square;stroke-linejoin:miter;fill:#ccc" d="M988.8 533.58h16.21v8.64H988.8zM1005.01 536.46h16.21v5.76h-16.21zM1021.22 537.9h16.21v4.32h-16.21zM1037.43 539.34h16.21v2.88h-16.21z"/><path style="stroke-width:1.07;stroke:#ccc;stroke-linecap:square;stroke-linejoin:miter;fill:#ccc" d="M1053.63 536.46h16.21v5.76h-16.21z"/><path style="stroke-width:1.07;stroke:#ccc;stroke-linecap:square;stroke-linejoin:miter;fill:#ccc" d="M1069.84 539.34h16.21v2.88h-16.21zM1086.05 540.78h16.21v1.44h-16.21zM1134.67 540.78h16.21v1.44h-16.21zM1167.09 539.34h16.21v2.88h-16.21zM1183.3 540.78h16.21v1.44h-16.21zM1231.92 540.78h16.21v1.44h-16.21zM1248.13 540.78h16.21v1.44h-16.21z"/></g></svg>