<svg xmlns="http://www.w3.org/2000/svg" class="svglite" width="1920" height="768" viewBox="0 0 1440 576"><defs><style>.svglite rect{fill:none;stroke:#000;stroke-linecap:round;stroke-linejoin:round;stroke-miterlimit:10}</style></defs><rect width="100%" height="100%" style="stroke:none;fill:none"/><defs><clipPath id="cpMC4wMHwxNDQwLjAwfDAuMDB8NTc2LjAw"><path d="M0 0h1440v576H0z"/></clipPath></defs><defs><clipPath id="cpOC4yMnwxNDM0LjUyfDUuNDh8NTY3Ljc4"><path d="M8.22 5.48h1426.3v562.3H8.22z"/></clipPath></defs><g clip-path="url(#cpOC4yMnwxNDM0LjUyfDUuNDh8NTY3Ljc4)"><path style="stroke-width:1.07;stroke:#fff;fill:#fff" d="M8.22 5.48h1426.3v562.3H8.22z"/><path style="stroke-width:1.07;stroke:#ccc;stroke-linecap:square;stroke-linejoin:miter;fill:#ccc" d="M178.4 540.97h16.21v1.25H178.4zM194.61 540.97h16.21v1.25h-16.21zM275.65 540.97h16.21v1.25h-16.21zM291.86 540.97h16.21v1.25h-16.21zM308.07 539.73h16.21v2.49h-16.21z"/><path style="stroke-width:1.07;stroke:#ccc;stroke-linecap:square;stroke-linejoin:miter;fill:#ccc" d="M324.27 540.97h16.21v1.25h-16.21zM356.69 535.99h16.21v6.24h-16.21zM372.9 538.48h16.21v3.74H372.9zM389.11 539.73h16.21v2.49h-16.21z"/><path style="stroke-width:1.07;stroke:#ccc;stroke-linecap:square;stroke-linejoin:miter;fill:#ccc" d="M405.31 535.99h16.21v6.24h-16.21zM421.52 534.74h16.21v7.48h-16.21zM437.73 534.74h16.21v7.48h-16.21zM453.94 532.24h16.21v9.98h-16.21zM470.15 521.02h16.21v21.2h-16.21z"/><path style="stroke-width:1.07;stroke:#ccc;stroke-linecap:square;stroke-linejoin:miter;fill:#ccc" d="M486.35 521.02h16.21v21.2h-16.21zM502.56 508.55h16.21v33.67h-16.21zM518.77 518.53h16.21v23.69h-16.21zM534.98 493.59h16.21v48.64h-16.21zM551.19 473.63h16.21v68.59h-16.21z"/><path style="stroke-width:1.07;stroke:#ccc;stroke-linecap:square;stroke-linejoin:miter;fill:#ccc" d="M567.39 459.91h16.21v82.31h-16.21zM583.6 441.21h16.21v101.01H583.6z"/><path style="stroke-width:1.07;stroke:#ccc;stroke-linecap:square;stroke-linejoin:miter;fill:#ccc" d="M599.81 382.59h16.21v159.63h-16.21zM616.02 331.46h16.21v210.76h-16.21zM632.23 296.54h16.21v245.68h-16.21z"/><path style="stroke-width:1.07;stroke:#ccc;stroke-linecap:square;stroke-linejoin:miter;fill:#ccc" d="M648.43 269.11h16.21v273.11h-16.21zM664.64 237.93h16.21v304.29h-16.21zM680.85 210.5h16.21v331.73h-16.21z"/><path style="stroke-width:1.07;stroke:#ccc;stroke-linecap:square;stroke-linejoin:miter;fill:#ccc" d="M697.06 131.93h16.21v410.29h-16.21zM713.27 151.88h16.21v390.34h-16.21z"/><path style="stroke-width:1.07;stroke:#ccc;stroke-linecap:square;stroke-linejoin:miter;fill:#ccc" d="M729.47 201.77h16.21v340.46h-16.21z"/><path style="stroke-width:1.07;stroke:#ccc;stroke-linecap:square;stroke-linejoin:miter;fill:#ccc" d="M745.68 235.44h16.21v306.78h-16.21zM761.89 193.04h16.21v349.19h-16.21zM778.1 230.45h16.21v311.77H778.1z"/><path style="stroke-width:1.07;stroke:#ccc;stroke-linecap:square;stroke-linejoin:miter;fill:#ccc" d="M794.31 301.53h16.21v240.69h-16.21z"/><path style="stroke-width:1.07;stroke:#ccc;stroke-linecap:square;stroke-linejoin:miter;fill:#ccc" d="M810.51 348.92h16.21v193.3h-16.21zM826.72 405.04h16.21v137.18h-16.21z"/><path style="stroke-width:1.07;stroke:#ccc;stroke-linecap:square;stroke-linejoin:miter;fill:#ccc" d="M842.93 420.01h16.21v122.22h-16.21zM859.14 478.62h16.21v63.6h-16.21zM875.35 478.62h16.21v63.6h-16.21z"/><path style="stroke-width:1.07;stroke:#ccc;stroke-linecap:square;stroke-linejoin:miter;fill:#ccc" d="M891.55 487.35h16.21v54.87h-16.21zM907.76 513.54h16.21v28.68h-16.21zM923.97 526.01h16.21v16.21h-16.21z"/><path style="stroke-width:1.07;stroke:#ccc;stroke-linecap:square;stroke-linejoin:miter;fill:#ccc" d="M940.18 514.79h16.21v27.44h-16.21zM956.39 516.03h16.21v26.19h-16.21z"/><path style="stroke-width:1.07;stroke:#ccc;stroke-linecap:square;stroke-linejoin:miter;fill:#ccc" d="M972.59 531h16.21v11.22h-16.21z"/><path style="stroke-width:1.07;stroke:#ccc;stroke-linecap:square;stroke-linejoin:miter;fill:#ccc" d="M988.8 534.74h16.21v7.48H988.8zM1005.01 535.99h16.21v6.24h-16.21zM1021.22 538.48h16.21v3.74h-16.21zM1037.43 537.23h16.21v4.99h-16.21z"/><path style="stroke-width:1.07;stroke:#ccc;stroke-linecap:square;stroke-linejoin:miter;fill:#ccc" d="M1053.63 537.23h16.21v4.99h-16.21z"/><path style="stroke-width:1.07;stroke:#ccc;stroke-linecap:square;stroke-linejoin:miter;fill:#ccc" d="M1069.84 539.73h16.21v2.49h-16.21zM1086.05 540.97h16.21v1.25h-16.21zM1134.67 539.73h16.21v2.49h-16.21zM1167.09 539.73h16.21v2.49h-16.21zM1183.3 540.97h16.21v1.25h-16.21zM1231.92 540.97h16.21v1.25h-16.21zM1248.13 540.97h16.21v1.25h-16.21z"/></g></svg>