<svg xmlns="http://www.w3.org/2000/svg" class="svglite" width="1920" height="768" viewBox="0 0 1440 576"><defs><style>.svglite rect{fill:none;stroke:#000;stroke-linecap:round;stroke-linejoin:round;stroke-miterlimit:10}</style></defs><rect width="100%" height="100%" style="stroke:none;fill:none"/><defs><clipPath id="cpMC4wMHwxNDQwLjAwfDAuMDB8NTc2LjAw"><path d="M0 0h1440v576H0z"/></clipPath></defs><defs><clipPath id="cpOC4yMnwxNDM0LjUyfDUuNDh8NTY3Ljc4"><path d="M8.22 5.48h1426.3v562.3H8.22z"/></clipPath></defs><g clip-path="url(#cpOC4yMnwxNDM0LjUyfDUuNDh8NTY3Ljc4)"><path style="stroke-width:1.07;stroke:#fff;fill:#fff" d="M8.22 5.48h1426.3v562.3H8.22z"/><path style="stroke-width:1.07;stroke:#ccc;stroke-linecap:square;stroke-linejoin:miter;fill:#ccc" d="M372.9 495.75h16.21v46.47H372.9zM470.15 449.28h16.21v92.94h-16.21z"/><path style="stroke-width:1.07;stroke:#ccc;stroke-linecap:square;stroke-linejoin:miter;fill:#ccc" d="M486.35 495.75h16.21v46.47h-16.21zM502.56 495.75h16.21v46.47h-16.21zM534.98 495.75h16.21v46.47h-16.21zM567.39 495.75h16.21v46.47h-16.21zM583.6 449.28h16.21v92.94H583.6z"/><path style="stroke-width:1.07;stroke:#ccc;stroke-linecap:square;stroke-linejoin:miter;fill:#ccc" d="M599.81 402.81h16.21v139.41h-16.21zM616.02 495.75h16.21v46.47h-16.21zM632.23 263.39h16.21v278.83h-16.21z"/><path style="stroke-width:1.07;stroke:#ccc;stroke-linecap:square;stroke-linejoin:miter;fill:#ccc" d="M648.43 170.45h16.21v371.77h-16.21zM664.64 77.51h16.21v464.71h-16.21zM680.85 170.45h16.21v371.77h-16.21z"/><path style="stroke-width:1.07;stroke:#ccc;stroke-linecap:square;stroke-linejoin:miter;fill:#ccc" d="M697.06 216.92h16.21v325.3h-16.21zM713.27 31.04h16.21v511.18h-16.21z"/><path style="stroke-width:1.07;stroke:#ccc;stroke-linecap:square;stroke-linejoin:miter;fill:#ccc" d="M729.47 123.98h16.21v418.24h-16.21z"/><path style="stroke-width:1.07;stroke:#ccc;stroke-linecap:square;stroke-linejoin:miter;fill:#ccc" d="M745.68 309.87h16.21v232.36h-16.21zM761.89 77.51h16.21v464.71h-16.21zM778.1 402.81h16.21v139.41H778.1z"/><path style="stroke-width:1.07;stroke:#ccc;stroke-linecap:square;stroke-linejoin:miter;fill:#ccc" d="M794.31 309.87h16.21v232.36h-16.21z"/><path style="stroke-width:1.07;stroke:#ccc;stroke-linecap:square;stroke-linejoin:miter;fill:#ccc" d="M810.51 263.39h16.21v278.83h-16.21zM826.72 449.28h16.21v92.94h-16.21zM859.14 402.81h16.21v139.41h-16.21zM875.35 495.75h16.21v46.47h-16.21z"/><path style="stroke-width:1.07;stroke:#ccc;stroke-linecap:square;stroke-linejoin:miter;fill:#ccc" d="M891.55 495.75h16.21v46.47h-16.21zM907.76 495.75h16.21v46.47h-16.21zM923.97 495.75h16.21v46.47h-16.21z"/></g></svg>