<svg xmlns="http://www.w3.org/2000/svg" class="svglite" width="1920" height="768" viewBox="0 0 1440 576"><defs><style>.svglite rect{fill:none;stroke:#000;stroke-linecap:round;stroke-linejoin:round;stroke-miterlimit:10}</style></defs><rect width="100%" height="100%" style="stroke:none;fill:none"/><defs><clipPath id="cpMC4wMHwxNDQwLjAwfDAuMDB8NTc2LjAw"><path d="M0 0h1440v576H0z"/></clipPath></defs><defs><clipPath id="cpOC4yMnwxNDM0LjUyfDUuNDh8NTY3Ljc4"><path d="M8.22 5.48h1426.3v562.3H8.22z"/></clipPath></defs><g clip-path="url(#cpOC4yMnwxNDM0LjUyfDUuNDh8NTY3Ljc4)"><path style="stroke-width:1.07;stroke:#fff;fill:#fff" d="M8.22 5.48h1426.3v562.3H8.22z"/><path style="stroke-width:1.07;stroke:#ccc;stroke-linecap:square;stroke-linejoin:miter;fill:#ccc" d="M178.4 541.13h16.21v1.09H178.4zM194.61 540.05h16.21v2.18h-16.21zM275.65 541.13h16.21v1.09h-16.21zM291.86 541.13h16.21v1.09h-16.21zM308.07 538.96h16.21v3.26h-16.21z"/><path style="stroke-width:1.07;stroke:#ccc;stroke-linecap:square;stroke-linejoin:miter;fill:#ccc" d="M324.27 541.13h16.21v1.09h-16.21zM356.69 536.78h16.21v5.44h-16.21zM372.9 538.96h16.21v3.26H372.9zM389.11 540.05h16.21v2.18h-16.21z"/><path style="stroke-width:1.07;stroke:#ccc;stroke-linecap:square;stroke-linejoin:miter;fill:#ccc" d="M405.31 534.61h16.21v7.61h-16.21zM421.52 533.52h16.21v8.7h-16.21zM437.73 535.69h16.21v6.53h-16.21zM453.94 531.34h16.21v10.88h-16.21zM470.15 521.55h16.21v20.67h-16.21z"/><path style="stroke-width:1.07;stroke:#ccc;stroke-linecap:square;stroke-linejoin:miter;fill:#ccc" d="M486.35 519.38h16.21v22.84h-16.21zM502.56 507.41h16.21v34.81h-16.21zM518.77 516.11h16.21v26.11h-16.21zM534.98 495.44h16.21v46.78h-16.21zM551.19 475.86h16.21v66.36h-16.21z"/><path style="stroke-width:1.07;stroke:#ccc;stroke-linecap:square;stroke-linejoin:miter;fill:#ccc" d="M567.39 463.9h16.21v78.33h-16.21zM583.6 436.7h16.21v105.52H583.6z"/><path style="stroke-width:1.07;stroke:#ccc;stroke-linecap:square;stroke-linejoin:miter;fill:#ccc" d="M599.81 384.48h16.21v157.74h-16.21zM616.02 335.53h16.21v206.69h-16.21zM632.23 288.75h16.21v253.47h-16.21z"/><path style="stroke-width:1.07;stroke:#ccc;stroke-linecap:square;stroke-linejoin:miter;fill:#ccc" d="M648.43 268.08h16.21v274.14h-16.21zM664.64 230.01h16.21v312.21h-16.21zM680.85 214.78h16.21v327.44h-16.21z"/><path style="stroke-width:1.07;stroke:#ccc;stroke-linecap:square;stroke-linejoin:miter;fill:#ccc" d="M697.06 139.72h16.21v402.51h-16.21zM713.27 150.59h16.21v391.63h-16.21z"/><path style="stroke-width:1.07;stroke:#ccc;stroke-linecap:square;stroke-linejoin:miter;fill:#ccc" d="M729.47 199.55h16.21v342.67h-16.21z"/><path style="stroke-width:1.07;stroke:#ccc;stroke-linecap:square;stroke-linejoin:miter;fill:#ccc" d="M745.68 222.39h16.21v319.83h-16.21zM761.89 195.2h16.21v347.03h-16.21zM778.1 232.18h16.21v310.04H778.1z"/><path style="stroke-width:1.07;stroke:#ccc;stroke-linecap:square;stroke-linejoin:miter;fill:#ccc" d="M794.31 309.42h16.21v232.8h-16.21z"/><path style="stroke-width:1.07;stroke:#ccc;stroke-linecap:square;stroke-linejoin:miter;fill:#ccc" d="M810.51 357.29h16.21v184.94h-16.21zM826.72 409.5h16.21v132.72h-16.21z"/><path style="stroke-width:1.07;stroke:#ccc;stroke-linecap:square;stroke-linejoin:miter;fill:#ccc" d="M842.93 413.85h16.21v128.37h-16.21zM859.14 474.77h16.21v67.45h-16.21zM875.35 478.04h16.21v64.18h-16.21z"/><path style="stroke-width:1.07;stroke:#ccc;stroke-linecap:square;stroke-linejoin:miter;fill:#ccc" d="M891.55 491.09h16.21v51.13h-16.21zM907.76 512.85h16.21v29.37h-16.21zM923.97 524.82h16.21v17.41h-16.21z"/><path style="stroke-width:1.07;stroke:#ccc;stroke-linecap:square;stroke-linejoin:miter;fill:#ccc" d="M940.18 515.03h16.21v27.2h-16.21zM956.39 516.11h16.21v26.11h-16.21z"/><path style="stroke-width:1.07;stroke:#ccc;stroke-linecap:square;stroke-linejoin:miter;fill:#ccc" d="M972.59 531.34h16.21v10.88h-16.21z"/><path style="stroke-width:1.07;stroke:#ccc;stroke-linecap:square;stroke-linejoin:miter;fill:#ccc" d="M988.8 535.69h16.21v6.53H988.8zM1005.01 534.61h16.21v7.61h-16.21zM1021.22 538.96h16.21v3.26h-16.21zM1037.43 537.87h16.21v4.35h-16.21z"/><path style="stroke-width:1.07;stroke:#ccc;stroke-linecap:square;stroke-linejoin:miter;fill:#ccc" d="M1053.63 537.87h16.21v4.35h-16.21z"/><path style="stroke-width:1.07;stroke:#ccc;stroke-linecap:square;stroke-linejoin:miter;fill:#ccc" d="M1069.84 540.05h16.21v2.18h-16.21zM1086.05 541.13h16.21v1.09h-16.21zM1134.67 540.05h16.21v2.18h-16.21zM1167.09 540.05h16.21v2.18h-16.21zM1183.3 540.05h16.21v2.18h-16.21zM1231.92 541.13h16.21v1.09h-16.21zM1248.13 541.13h16.21v1.09h-16.21z"/></g></svg>