<svg xmlns="http://www.w3.org/2000/svg" class="svglite" width="1920" height="768" viewBox="0 0 1440 576"><defs><style>.svglite rect{fill:none;stroke:#000;stroke-linecap:round;stroke-linejoin:round;stroke-miterlimit:10}</style></defs><rect width="100%" height="100%" style="stroke:none;fill:none"/><defs><clipPath id="cpMC4wMHwxNDQwLjAwfDAuMDB8NTc2LjAw"><path d="M0 0h1440v576H0z"/></clipPath></defs><defs><clipPath id="cpOC4yMnwxNDM0LjUyfDUuNDh8NTY3Ljc4"><path d="M8.22 5.48h1426.3v562.3H8.22z"/></clipPath></defs><g clip-path="url(#cpOC4yMnwxNDM0LjUyfDUuNDh8NTY3Ljc4)"><path style="stroke-width:1.07;stroke:#fff;fill:#fff" d="M8.22 5.48h1426.3v562.3H8.22z"/><path style="stroke-width:1.07;stroke:#ccc;stroke-linecap:square;stroke-linejoin:miter;fill:#ccc" d="M178.4 541.27h16.21v.96H178.4zM194.61 540.31h16.21v1.91h-16.21zM275.65 541.27h16.21v.96h-16.21zM291.86 541.27h16.21v.96h-16.21zM308.07 539.35h16.21v2.87h-16.21z"/><path style="stroke-width:1.07;stroke:#ccc;stroke-linecap:square;stroke-linejoin:miter;fill:#ccc" d="M324.27 541.27h16.21v.96h-16.21zM356.69 536.49h16.21v5.73h-16.21zM372.9 539.35h16.21v2.87H372.9zM389.11 540.31h16.21v1.91h-16.21z"/><path style="stroke-width:1.07;stroke:#ccc;stroke-linecap:square;stroke-linejoin:miter;fill:#ccc" d="M405.31 534.58h16.21v7.65h-16.21zM421.52 533.62h16.21v8.6h-16.21zM437.73 535.53h16.21v6.69h-16.21zM453.94 532.67h16.21v9.56h-16.21zM470.15 522.15h16.21v20.07h-16.21z"/><path style="stroke-width:1.07;stroke:#ccc;stroke-linecap:square;stroke-linejoin:miter;fill:#ccc" d="M486.35 520.24h16.21v21.98h-16.21zM502.56 506.86h16.21v35.36h-16.21zM518.77 513.55h16.21v28.67h-16.21zM534.98 494.44h16.21v47.78h-16.21zM551.19 476.28h16.21v65.94h-16.21z"/><path style="stroke-width:1.07;stroke:#ccc;stroke-linecap:square;stroke-linejoin:miter;fill:#ccc" d="M567.39 459.08h16.21v83.14h-16.21zM583.6 437.1h16.21v105.12H583.6z"/><path style="stroke-width:1.07;stroke:#ccc;stroke-linecap:square;stroke-linejoin:miter;fill:#ccc" d="M599.81 386.45h16.21v155.77h-16.21zM616.02 332.93h16.21v209.29h-16.21zM632.23 291.84h16.21v250.38h-16.21z"/><path style="stroke-width:1.07;stroke:#ccc;stroke-linecap:square;stroke-linejoin:miter;fill:#ccc" d="M648.43 261.26h16.21v280.96h-16.21zM664.64 223.99h16.21v318.24h-16.21zM680.85 219.21h16.21v323.01h-16.21z"/><path style="stroke-width:1.07;stroke:#ccc;stroke-linecap:square;stroke-linejoin:miter;fill:#ccc" d="M697.06 139.89h16.21v402.33h-16.21zM713.27 149.45h16.21v392.78h-16.21z"/><path style="stroke-width:1.07;stroke:#ccc;stroke-linecap:square;stroke-linejoin:miter;fill:#ccc" d="M729.47 196.27h16.21v345.95h-16.21z"/><path style="stroke-width:1.07;stroke:#ccc;stroke-linecap:square;stroke-linejoin:miter;fill:#ccc" d="M745.68 219.21h16.21v323.01h-16.21zM761.89 196.27h16.21v345.95h-16.21zM778.1 248.83h16.21v293.39H778.1z"/><path style="stroke-width:1.07;stroke:#ccc;stroke-linecap:square;stroke-linejoin:miter;fill:#ccc" d="M794.31 311.91h16.21v230.31h-16.21z"/><path style="stroke-width:1.07;stroke:#ccc;stroke-linecap:square;stroke-linejoin:miter;fill:#ccc" d="M810.51 353.96h16.21v188.27h-16.21zM826.72 404.61h16.21v137.62h-16.21z"/><path style="stroke-width:1.07;stroke:#ccc;stroke-linecap:square;stroke-linejoin:miter;fill:#ccc" d="M842.93 418.94h16.21v123.28h-16.21zM859.14 475.33h16.21v66.9h-16.21zM875.35 478.19h16.21v64.03h-16.21z"/><path style="stroke-width:1.07;stroke:#ccc;stroke-linecap:square;stroke-linejoin:miter;fill:#ccc" d="M891.55 491.57h16.21v50.65h-16.21zM907.76 510.68h16.21v31.54h-16.21zM923.97 523.11h16.21v19.11h-16.21z"/><path style="stroke-width:1.07;stroke:#ccc;stroke-linecap:square;stroke-linejoin:miter;fill:#ccc" d="M940.18 514.51h16.21v27.71h-16.21zM956.39 516.42h16.21v25.8h-16.21z"/><path style="stroke-width:1.07;stroke:#ccc;stroke-linecap:square;stroke-linejoin:miter;fill:#ccc" d="M972.59 531.71h16.21v10.51h-16.21z"/><path style="stroke-width:1.07;stroke:#ccc;stroke-linecap:square;stroke-linejoin:miter;fill:#ccc" d="M988.8 535.53h16.21v6.69H988.8zM1005.01 534.58h16.21v7.65h-16.21zM1021.22 539.35h16.21v2.87h-16.21zM1037.43 538.4h16.21v3.82h-16.21z"/><path style="stroke-width:1.07;stroke:#ccc;stroke-linecap:square;stroke-linejoin:miter;fill:#ccc" d="M1053.63 538.4h16.21v3.82h-16.21z"/><path style="stroke-width:1.07;stroke:#ccc;stroke-linecap:square;stroke-linejoin:miter;fill:#ccc" d="M1069.84 540.31h16.21v1.91h-16.21zM1086.05 541.27h16.21v.96h-16.21zM1134.67 540.31h16.21v1.91h-16.21zM1167.09 540.31h16.21v1.91h-16.21zM1183.3 540.31h16.21v1.91h-16.21zM1231.92 541.27h16.21v.96h-16.21zM1248.13 541.27h16.21v.96h-16.21z"/></g></svg>