<svg xmlns="http://www.w3.org/2000/svg" class="svglite" width="1920" height="768" viewBox="0 0 1440 576"><defs><style>.svglite rect{fill:none;stroke:#000;stroke-linecap:round;stroke-linejoin:round;stroke-miterlimit:10}</style></defs><rect width="100%" height="100%" style="stroke:none;fill:none"/><defs><clipPath id="cpMC4wMHwxNDQwLjAwfDAuMDB8NTc2LjAw"><path d="M0 0h1440v576H0z"/></clipPath></defs><defs><clipPath id="cpOC4yMnwxNDM0LjUyfDUuNDh8NTY3Ljc4"><path d="M8.22 5.48h1426.3v562.3H8.22z"/></clipPath></defs><g clip-path="url(#cpOC4yMnwxNDM0LjUyfDUuNDh8NTY3Ljc4)"><path style="stroke-width:1.07;stroke:#fff;fill:#fff" d="M8.22 5.48h1426.3v562.3H8.22z"/><path style="stroke-width:1.07;stroke:#ccc;stroke-linecap:square;stroke-linejoin:miter;fill:#ccc" d="M178.4 541.38h16.21v.85H178.4zM194.61 540.53h16.21v1.69h-16.21zM275.65 541.38h16.21v.85h-16.21zM291.86 541.38h16.21v.85h-16.21zM308.07 538.84h16.21v3.38h-16.21z"/><path style="stroke-width:1.07;stroke:#ccc;stroke-linecap:square;stroke-linejoin:miter;fill:#ccc" d="M324.27 541.38h16.21v.85h-16.21zM356.69 536.31h16.21v5.92h-16.21zM372.9 539.69h16.21v2.54H372.9zM389.11 540.53h16.21v1.69h-16.21z"/><path style="stroke-width:1.07;stroke:#ccc;stroke-linecap:square;stroke-linejoin:miter;fill:#ccc" d="M405.31 534.62h16.21v7.61h-16.21zM421.52 533.77h16.21v8.45h-16.21zM437.73 536.31h16.21v5.92h-16.21zM453.94 532.93h16.21v9.3h-16.21zM470.15 523.63h16.21v18.59h-16.21z"/><path style="stroke-width:1.07;stroke:#ccc;stroke-linecap:square;stroke-linejoin:miter;fill:#ccc" d="M486.35 519.4h16.21v22.82h-16.21zM502.56 510.95h16.21v31.27h-16.21zM518.77 510.11h16.21v32.11h-16.21zM534.98 496.59h16.21v45.63h-16.21zM551.19 474.62h16.21v67.61h-16.21z"/><path style="stroke-width:1.07;stroke:#ccc;stroke-linecap:square;stroke-linejoin:miter;fill:#ccc" d="M567.39 456.87h16.21v85.35h-16.21zM583.6 428.98h16.21v113.24H583.6z"/><path style="stroke-width:1.07;stroke:#ccc;stroke-linecap:square;stroke-linejoin:miter;fill:#ccc" d="M599.81 383.35h16.21v158.87h-16.21zM616.02 335.18h16.21v207.04h-16.21zM632.23 299.69h16.21v242.54h-16.21z"/><path style="stroke-width:1.07;stroke:#ccc;stroke-linecap:square;stroke-linejoin:miter;fill:#ccc" d="M648.43 268.42h16.21v273.8h-16.21zM664.64 219.4h16.21v322.82h-16.21zM680.85 213.49h16.21v328.73h-16.21z"/><path style="stroke-width:1.07;stroke:#ccc;stroke-linecap:square;stroke-linejoin:miter;fill:#ccc" d="M697.06 139.97h16.21v402.25h-16.21zM713.27 150.95h16.21v391.27h-16.21z"/><path style="stroke-width:1.07;stroke:#ccc;stroke-linecap:square;stroke-linejoin:miter;fill:#ccc" d="M729.47 196.59h16.21v345.63h-16.21z"/><path style="stroke-width:1.07;stroke:#ccc;stroke-linecap:square;stroke-linejoin:miter;fill:#ccc" d="M745.68 213.49h16.21v328.73h-16.21zM761.89 196.59h16.21v345.63h-16.21zM778.1 260.81h16.21v281.41H778.1z"/><path style="stroke-width:1.07;stroke:#ccc;stroke-linecap:square;stroke-linejoin:miter;fill:#ccc" d="M794.31 314.05h16.21v228.17h-16.21z"/><path style="stroke-width:1.07;stroke:#ccc;stroke-linecap:square;stroke-linejoin:miter;fill:#ccc" d="M810.51 357.15h16.21v185.07h-16.21zM826.72 401.09h16.21v141.13h-16.21z"/><path style="stroke-width:1.07;stroke:#ccc;stroke-linecap:square;stroke-linejoin:miter;fill:#ccc" d="M842.93 417.15h16.21v125.07h-16.21zM859.14 472.93h16.21v69.3h-16.21zM875.35 472.93h16.21v69.3h-16.21z"/><path style="stroke-width:1.07;stroke:#ccc;stroke-linecap:square;stroke-linejoin:miter;fill:#ccc" d="M891.55 491.52h16.21v50.7h-16.21zM907.76 510.11h16.21v32.11h-16.21zM923.97 521.09h16.21v21.13h-16.21z"/><path style="stroke-width:1.07;stroke:#ccc;stroke-linecap:square;stroke-linejoin:miter;fill:#ccc" d="M940.18 517.71h16.21v24.51h-16.21zM956.39 518.56h16.21v23.66h-16.21z"/><path style="stroke-width:1.07;stroke:#ccc;stroke-linecap:square;stroke-linejoin:miter;fill:#ccc" d="M972.59 530.39h16.21v11.83h-16.21z"/><path style="stroke-width:1.07;stroke:#ccc;stroke-linecap:square;stroke-linejoin:miter;fill:#ccc" d="M988.8 536.31h16.21v5.92H988.8zM1005.01 533.77h16.21v8.45h-16.21zM1021.22 539.69h16.21v2.54h-16.21zM1037.43 538h16.21v4.23h-16.21z"/><path style="stroke-width:1.07;stroke:#ccc;stroke-linecap:square;stroke-linejoin:miter;fill:#ccc" d="M1053.63 538.84h16.21v3.38h-16.21z"/><path style="stroke-width:1.07;stroke:#ccc;stroke-linecap:square;stroke-linejoin:miter;fill:#ccc" d="M1069.84 540.53h16.21v1.69h-16.21zM1086.05 541.38h16.21v.85h-16.21zM1102.26 541.38h16.21v.85h-16.21zM1134.67 540.53h16.21v1.69h-16.21zM1167.09 540.53h16.21v1.69h-16.21zM1183.3 540.53h16.21v1.69h-16.21zM1231.92 541.38h16.21v.85h-16.21zM1248.13 541.38h16.21v.85h-16.21z"/></g></svg>