<svg xmlns="http://www.w3.org/2000/svg" class="svglite" width="1920" height="768" viewBox="0 0 1440 576"><defs><style>.svglite rect{fill:none;stroke:#000;stroke-linecap:round;stroke-linejoin:round;stroke-miterlimit:10}</style></defs><rect width="100%" height="100%" style="stroke:none;fill:none"/><defs><clipPath id="cpMC4wMHwxNDQwLjAwfDAuMDB8NTc2LjAw"><path d="M0 0h1440v576H0z"/></clipPath></defs><defs><clipPath id="cpOC4yMnwxNDM0LjUyfDUuNDh8NTY3Ljc4"><path d="M8.22 5.48h1426.3v562.3H8.22z"/></clipPath></defs><g clip-path="url(#cpOC4yMnwxNDM0LjUyfDUuNDh8NTY3Ljc4)"><path style="stroke-width:1.07;stroke:#fff;fill:#fff" d="M8.22 5.48h1426.3v562.3H8.22z"/><path style="stroke-width:1.07;stroke:#ccc;stroke-linecap:square;stroke-linejoin:miter;fill:#ccc" d="M178.4 541.48h16.21v.75H178.4zM194.61 540.73h16.21v1.49h-16.21zM275.65 541.48h16.21v.75h-16.21zM291.86 541.48h16.21v.75h-16.21zM308.07 538.49h16.21v3.73h-16.21z"/><path style="stroke-width:1.07;stroke:#ccc;stroke-linecap:square;stroke-linejoin:miter;fill:#ccc" d="M324.27 541.48h16.21v.75h-16.21zM356.69 537h16.21v5.22h-16.21zM372.9 539.24h16.21v2.99H372.9zM389.11 540.73h16.21v1.49h-16.21z"/><path style="stroke-width:1.07;stroke:#ccc;stroke-linecap:square;stroke-linejoin:miter;fill:#ccc" d="M405.31 534.01h16.21v8.21h-16.21zM421.52 533.27h16.21v8.96h-16.21zM437.73 536.25h16.21v5.97h-16.21zM453.94 531.77h16.21v10.45h-16.21zM470.15 525.06h16.21v17.17h-16.21z"/><path style="stroke-width:1.07;stroke:#ccc;stroke-linecap:square;stroke-linejoin:miter;fill:#ccc" d="M486.35 517.59h16.21v24.63h-16.21zM502.56 512.37h16.21v29.85h-16.21zM518.77 509.38h16.21v32.84h-16.21zM534.98 498.19h16.21v44.04h-16.21zM551.19 475.05h16.21v67.17h-16.21z"/><path style="stroke-width:1.07;stroke:#ccc;stroke-linecap:square;stroke-linejoin:miter;fill:#ccc" d="M567.39 459.38h16.21v82.85h-16.21zM583.6 431.76h16.21v110.46H583.6z"/><path style="stroke-width:1.07;stroke:#ccc;stroke-linecap:square;stroke-linejoin:miter;fill:#ccc" d="M599.81 384.74h16.21v157.48h-16.21zM616.02 334.73h16.21v207.49h-16.21zM632.23 306.37h16.21v235.85h-16.21z"/><path style="stroke-width:1.07;stroke:#ccc;stroke-linecap:square;stroke-linejoin:miter;fill:#ccc" d="M648.43 261.59h16.21v280.63h-16.21zM664.64 219.05h16.21v323.17h-16.21zM680.85 216.06h16.21v326.16h-16.21z"/><path style="stroke-width:1.07;stroke:#ccc;stroke-linecap:square;stroke-linejoin:miter;fill:#ccc" d="M697.06 142.92h16.21v399.3h-16.21zM713.27 149.64h16.21v392.59h-16.21z"/><path style="stroke-width:1.07;stroke:#ccc;stroke-linecap:square;stroke-linejoin:miter;fill:#ccc" d="M729.47 195.16h16.21v347.06h-16.21z"/><path style="stroke-width:1.07;stroke:#ccc;stroke-linecap:square;stroke-linejoin:miter;fill:#ccc" d="M745.68 204.87h16.21v337.36h-16.21zM761.89 189.19h16.21v353.03h-16.21zM778.1 264.58h16.21v277.65H778.1z"/><path style="stroke-width:1.07;stroke:#ccc;stroke-linecap:square;stroke-linejoin:miter;fill:#ccc" d="M794.31 316.82h16.21v225.4h-16.21z"/><path style="stroke-width:1.07;stroke:#ccc;stroke-linecap:square;stroke-linejoin:miter;fill:#ccc" d="M810.51 359.36h16.21v182.86h-16.21zM826.72 400.41h16.21v141.81h-16.21z"/><path style="stroke-width:1.07;stroke:#ccc;stroke-linecap:square;stroke-linejoin:miter;fill:#ccc" d="M842.93 421.31h16.21v120.91h-16.21zM859.14 468.33h16.21v73.89h-16.21zM875.35 473.56h16.21v68.67h-16.21z"/><path style="stroke-width:1.07;stroke:#ccc;stroke-linecap:square;stroke-linejoin:miter;fill:#ccc" d="M891.55 492.22h16.21v50.01h-16.21zM907.76 510.87h16.21v31.35h-16.21zM923.97 520.58h16.21v21.64h-16.21z"/><path style="stroke-width:1.07;stroke:#ccc;stroke-linecap:square;stroke-linejoin:miter;fill:#ccc" d="M940.18 516.85h16.21v25.38h-16.21zM956.39 519.08h16.21v23.14h-16.21z"/><path style="stroke-width:1.07;stroke:#ccc;stroke-linecap:square;stroke-linejoin:miter;fill:#ccc" d="M972.59 529.53h16.21v12.69h-16.21z"/><path style="stroke-width:1.07;stroke:#ccc;stroke-linecap:square;stroke-linejoin:miter;fill:#ccc" d="M988.8 534.76h16.21v7.46H988.8zM1005.01 534.01h16.21v8.21h-16.21zM1021.22 539.98h16.21v2.24h-16.21zM1037.43 537.74h16.21v4.48h-16.21z"/><path style="stroke-width:1.07;stroke:#ccc;stroke-linecap:square;stroke-linejoin:miter;fill:#ccc" d="M1053.63 538.49h16.21v3.73h-16.21z"/><path style="stroke-width:1.07;stroke:#ccc;stroke-linecap:square;stroke-linejoin:miter;fill:#ccc" d="M1069.84 540.73h16.21v1.49h-16.21zM1086.05 541.48h16.21v.75h-16.21zM1102.26 541.48h16.21v.75h-16.21zM1134.67 540.73h16.21v1.49h-16.21zM1150.88 541.48h16.21v.75h-16.21z"/><path style="stroke-width:1.07;stroke:#ccc;stroke-linecap:square;stroke-linejoin:miter;fill:#ccc" d="M1167.09 540.73h16.21v1.49h-16.21zM1183.3 540.73h16.21v1.49h-16.21zM1231.92 541.48h16.21v.75h-16.21zM1248.13 541.48h16.21v.75h-16.21z"/></g></svg>