<svg xmlns="http://www.w3.org/2000/svg" class="svglite" width="1920" height="768" viewBox="0 0 1440 576"><defs><style>.svglite rect{fill:none;stroke:#000;stroke-linecap:round;stroke-linejoin:round;stroke-miterlimit:10}</style></defs><rect width="100%" height="100%" style="stroke:none;fill:none"/><defs><clipPath id="cpMC4wMHwxNDQwLjAwfDAuMDB8NTc2LjAw"><path d="M0 0h1440v576H0z"/></clipPath></defs><defs><clipPath id="cpOC4yMnwxNDM0LjUyfDUuNDh8NTY3Ljc4"><path d="M8.22 5.48h1426.3v562.3H8.22z"/></clipPath></defs><g clip-path="url(#cpOC4yMnwxNDM0LjUyfDUuNDh8NTY3Ljc4)"><path style="stroke-width:1.07;stroke:#fff;fill:#fff" d="M8.22 5.48h1426.3v562.3H8.22z"/><path style="stroke-width:1.07;stroke:#ccc;stroke-linecap:square;stroke-linejoin:miter;fill:#ccc" d="M178.4 541.56h16.21v.66H178.4zM194.61 540.9h16.21v1.32h-16.21zM275.65 541.56h16.21v.66h-16.21zM291.86 541.56h16.21v.66h-16.21zM308.07 538.92h16.21v3.3h-16.21z"/><path style="stroke-width:1.07;stroke:#ccc;stroke-linecap:square;stroke-linejoin:miter;fill:#ccc" d="M324.27 541.56h16.21v.66h-16.21zM356.69 537.6h16.21v4.62h-16.21zM372.9 538.92h16.21v3.3H372.9zM389.11 540.24h16.21v1.98h-16.21z"/><path style="stroke-width:1.07;stroke:#ccc;stroke-linecap:square;stroke-linejoin:miter;fill:#ccc" d="M405.31 534.31h16.21v7.92h-16.21zM421.52 531.67h16.21v10.55h-16.21zM437.73 536.28h16.21v5.94h-16.21zM453.94 531.67h16.21v10.55h-16.21zM470.15 525.07h16.21v17.15h-16.21z"/><path style="stroke-width:1.07;stroke:#ccc;stroke-linecap:square;stroke-linejoin:miter;fill:#ccc" d="M486.35 517.15h16.21v25.07h-16.21zM502.56 513.2h16.21v29.03h-16.21zM518.77 507.92h16.21v34.3h-16.21zM534.98 499.34h16.21v42.88h-16.21zM551.19 477.57h16.21v64.65h-16.21z"/><path style="stroke-width:1.07;stroke:#ccc;stroke-linecap:square;stroke-linejoin:miter;fill:#ccc" d="M567.39 459.76h16.21v82.46h-16.21zM583.6 428.76h16.21v113.46H583.6z"/><path style="stroke-width:1.07;stroke:#ccc;stroke-linecap:square;stroke-linejoin:miter;fill:#ccc" d="M599.81 389.84h16.21v152.39h-16.21zM616.02 333.1h16.21v209.12h-16.21zM632.23 303.42h16.21v238.8h-16.21z"/><path style="stroke-width:1.07;stroke:#ccc;stroke-linecap:square;stroke-linejoin:miter;fill:#ccc" d="M648.43 265.16h16.21v277.06h-16.21zM664.64 222.94h16.21v319.28h-16.21zM680.85 211.72h16.21v330.5h-16.21z"/><path style="stroke-width:1.07;stroke:#ccc;stroke-linecap:square;stroke-linejoin:miter;fill:#ccc" d="M697.06 143.78h16.21v398.44h-16.21zM713.27 144.44h16.21v397.78h-16.21z"/><path style="stroke-width:1.07;stroke:#ccc;stroke-linecap:square;stroke-linejoin:miter;fill:#ccc" d="M729.47 182.7h16.21v359.52h-16.21z"/><path style="stroke-width:1.07;stroke:#ccc;stroke-linecap:square;stroke-linejoin:miter;fill:#ccc" d="M745.68 204.47h16.21v337.75h-16.21zM761.89 199.19h16.21v343.03h-16.21zM778.1 271.75h16.21v270.47H778.1z"/><path style="stroke-width:1.07;stroke:#ccc;stroke-linecap:square;stroke-linejoin:miter;fill:#ccc" d="M794.31 311.34h16.21v230.89h-16.21z"/><path style="stroke-width:1.07;stroke:#ccc;stroke-linecap:square;stroke-linejoin:miter;fill:#ccc" d="M810.51 359.49h16.21v182.73h-16.21zM826.72 407.65h16.21v134.57h-16.21z"/><path style="stroke-width:1.07;stroke:#ccc;stroke-linecap:square;stroke-linejoin:miter;fill:#ccc" d="M842.93 420.18h16.21v122.04h-16.21zM859.14 467.68h16.21v74.54h-16.21zM875.35 471.64h16.21v70.59h-16.21z"/><path style="stroke-width:1.07;stroke:#ccc;stroke-linecap:square;stroke-linejoin:miter;fill:#ccc" d="M891.55 492.09h16.21v50.14h-16.21zM907.76 508.58h16.21v33.64h-16.21zM923.97 519.79h16.21v22.43h-16.21z"/><path style="stroke-width:1.07;stroke:#ccc;stroke-linecap:square;stroke-linejoin:miter;fill:#ccc" d="M940.18 517.15h16.21v25.07h-16.21zM956.39 519.79h16.21v22.43h-16.21z"/><path style="stroke-width:1.07;stroke:#ccc;stroke-linecap:square;stroke-linejoin:miter;fill:#ccc" d="M972.59 529.69h16.21v12.53h-16.21z"/><path style="stroke-width:1.07;stroke:#ccc;stroke-linecap:square;stroke-linejoin:miter;fill:#ccc" d="M988.8 535.62h16.21v6.6H988.8zM1005.01 534.31h16.21v7.92h-16.21zM1021.22 540.24h16.21v1.98h-16.21zM1037.43 538.26h16.21v3.96h-16.21z"/><path style="stroke-width:1.07;stroke:#ccc;stroke-linecap:square;stroke-linejoin:miter;fill:#ccc" d="M1053.63 538.26h16.21v3.96h-16.21z"/><path style="stroke-width:1.07;stroke:#ccc;stroke-linecap:square;stroke-linejoin:miter;fill:#ccc" d="M1069.84 540.9h16.21v1.32h-16.21zM1086.05 541.56h16.21v.66h-16.21zM1102.26 540.9h16.21v1.32h-16.21zM1134.67 540.9h16.21v1.32h-16.21zM1150.88 540.9h16.21v1.32h-16.21z"/><path style="stroke-width:1.07;stroke:#ccc;stroke-linecap:square;stroke-linejoin:miter;fill:#ccc" d="M1167.09 540.9h16.21v1.32h-16.21zM1183.3 540.9h16.21v1.32h-16.21z"/><path style="stroke-width:1.07;stroke:#ccc;stroke-linecap:square;stroke-linejoin:miter;fill:#ccc" d="M1199.5 541.56h16.21v.66h-16.21zM1231.92 541.56h16.21v.66h-16.21zM1248.13 541.56h16.21v.66h-16.21z"/></g></svg>