<svg xmlns="http://www.w3.org/2000/svg" class="svglite" width="1920" height="768" viewBox="0 0 1440 576"><defs><style>.svglite rect{fill:none;stroke:#000;stroke-linecap:round;stroke-linejoin:round;stroke-miterlimit:10}</style></defs><rect width="100%" height="100%" style="stroke:none;fill:none"/><defs><clipPath id="cpMC4wMHwxNDQwLjAwfDAuMDB8NTc2LjAw"><path d="M0 0h1440v576H0z"/></clipPath></defs><defs><clipPath id="cpOC4yMnwxNDM0LjUyfDUuNDh8NTY3Ljc4"><path d="M8.22 5.48h1426.3v562.3H8.22z"/></clipPath></defs><g clip-path="url(#cpOC4yMnwxNDM0LjUyfDUuNDh8NTY3Ljc4)"><path style="stroke-width:1.07;stroke:#fff;fill:#fff" d="M8.22 5.48h1426.3v562.3H8.22z"/><path style="stroke-width:1.07;stroke:#ccc;stroke-linecap:square;stroke-linejoin:miter;fill:#ccc" d="M178.4 541.64h16.21v.58H178.4zM194.61 541.05h16.21v1.17h-16.21zM275.65 541.64h16.21v.58h-16.21zM291.86 541.64h16.21v.58h-16.21zM308.07 538.72h16.21v3.51h-16.21z"/><path style="stroke-width:1.07;stroke:#ccc;stroke-linecap:square;stroke-linejoin:miter;fill:#ccc" d="M324.27 541.64h16.21v.58h-16.21zM356.69 538.13h16.21v4.09h-16.21zM372.9 538.13h16.21v4.09H372.9zM389.11 539.88h16.21v2.34h-16.21z"/><path style="stroke-width:1.07;stroke:#ccc;stroke-linecap:square;stroke-linejoin:miter;fill:#ccc" d="M405.31 533.46h16.21v8.76h-16.21zM421.52 532.87h16.21v9.35h-16.21zM437.73 536.38h16.21v5.84h-16.21zM453.94 532.29h16.21v9.93h-16.21zM470.15 525.28h16.21v16.94h-16.21z"/><path style="stroke-width:1.07;stroke:#ccc;stroke-linecap:square;stroke-linejoin:miter;fill:#ccc" d="M486.35 515.93h16.21v26.29h-16.21zM502.56 513.01h16.21v29.21h-16.21zM518.77 508.92h16.21v33.3h-16.21zM534.98 497.82h16.21v44.4h-16.21zM551.19 478.54h16.21v63.69h-16.21z"/><path style="stroke-width:1.07;stroke:#ccc;stroke-linecap:square;stroke-linejoin:miter;fill:#ccc" d="M567.39 459.25h16.21v82.97h-16.21zM583.6 425.37h16.21v116.86H583.6z"/><path style="stroke-width:1.07;stroke:#ccc;stroke-linecap:square;stroke-linejoin:miter;fill:#ccc" d="M599.81 389.14h16.21v153.08h-16.21zM616.02 331.3h16.21v210.92h-16.21zM632.23 309.1h16.21v233.13h-16.21z"/><path style="stroke-width:1.07;stroke:#ccc;stroke-linecap:square;stroke-linejoin:miter;fill:#ccc" d="M648.43 261.77h16.21v280.45h-16.21zM664.64 227.3h16.21v314.92h-16.21zM680.85 200.42h16.21v341.8h-16.21z"/><path style="stroke-width:1.07;stroke:#ccc;stroke-linecap:square;stroke-linejoin:miter;fill:#ccc" d="M697.06 142.58h16.21v399.64h-16.21zM713.27 145.5h16.21v396.72h-16.21z"/><path style="stroke-width:1.07;stroke:#ccc;stroke-linecap:square;stroke-linejoin:miter;fill:#ccc" d="M729.47 183.48h16.21v358.75h-16.21z"/><path style="stroke-width:1.07;stroke:#ccc;stroke-linecap:square;stroke-linejoin:miter;fill:#ccc" d="M745.68 209.18h16.21v333.04h-16.21zM761.89 205.09h16.21v337.13h-16.21zM778.1 271.12h16.21v271.1H778.1z"/><path style="stroke-width:1.07;stroke:#ccc;stroke-linecap:square;stroke-linejoin:miter;fill:#ccc" d="M794.31 314.35h16.21v227.87h-16.21z"/><path style="stroke-width:1.07;stroke:#ccc;stroke-linecap:square;stroke-linejoin:miter;fill:#ccc" d="M810.51 364.02h16.21v178.2h-16.21zM826.72 407.84h16.21v134.38h-16.21z"/><path style="stroke-width:1.07;stroke:#ccc;stroke-linecap:square;stroke-linejoin:miter;fill:#ccc" d="M842.93 422.45h16.21v119.78h-16.21zM859.14 464.51h16.21v77.71h-16.21zM875.35 469.19h16.21v73.03h-16.21z"/><path style="stroke-width:1.07;stroke:#ccc;stroke-linecap:square;stroke-linejoin:miter;fill:#ccc" d="M891.55 490.22h16.21v52h-16.21zM907.76 508.33h16.21v33.89h-16.21zM923.97 520.02h16.21v22.2h-16.21z"/><path style="stroke-width:1.07;stroke:#ccc;stroke-linecap:square;stroke-linejoin:miter;fill:#ccc" d="M940.18 515.93h16.21v26.29h-16.21zM956.39 521.19h16.21v21.03h-16.21z"/><path style="stroke-width:1.07;stroke:#ccc;stroke-linecap:square;stroke-linejoin:miter;fill:#ccc" d="M972.59 529.95h16.21v12.27h-16.21z"/><path style="stroke-width:1.07;stroke:#ccc;stroke-linecap:square;stroke-linejoin:miter;fill:#ccc" d="M988.8 535.21h16.21v7.01H988.8zM1005.01 533.46h16.21v8.76h-16.21zM1021.22 540.47h16.21v1.75h-16.21zM1037.43 538.13h16.21v4.09h-16.21z"/><path style="stroke-width:1.07;stroke:#ccc;stroke-linecap:square;stroke-linejoin:miter;fill:#ccc" d="M1053.63 537.55h16.21v4.67h-16.21z"/><path style="stroke-width:1.07;stroke:#ccc;stroke-linecap:square;stroke-linejoin:miter;fill:#ccc" d="M1069.84 540.47h16.21v1.75h-16.21zM1086.05 541.05h16.21v1.17h-16.21zM1102.26 541.05h16.21v1.17h-16.21zM1118.47 541.64h16.21v.58h-16.21z"/><path style="stroke-width:1.07;stroke:#ccc;stroke-linecap:square;stroke-linejoin:miter;fill:#ccc" d="M1134.67 541.05h16.21v1.17h-16.21zM1150.88 541.05h16.21v1.17h-16.21z"/><path style="stroke-width:1.07;stroke:#ccc;stroke-linecap:square;stroke-linejoin:miter;fill:#ccc" d="M1167.09 541.05h16.21v1.17h-16.21zM1183.3 541.05h16.21v1.17h-16.21z"/><path style="stroke-width:1.07;stroke:#ccc;stroke-linecap:square;stroke-linejoin:miter;fill:#ccc" d="M1199.5 541.64h16.21v.58h-16.21zM1231.92 541.64h16.21v.58h-16.21zM1248.13 541.64h16.21v.58h-16.21z"/></g></svg>