<svg xmlns="http://www.w3.org/2000/svg" class="svglite" width="1920" height="768" viewBox="0 0 1440 576"><defs><style>.svglite rect{fill:none;stroke:#000;stroke-linecap:round;stroke-linejoin:round;stroke-miterlimit:10}</style></defs><rect width="100%" height="100%" style="stroke:none;fill:none"/><defs><clipPath id="cpMC4wMHwxNDQwLjAwfDAuMDB8NTc2LjAw"><path d="M0 0h1440v576H0z"/></clipPath></defs><defs><clipPath id="cpOC4yMnwxNDM0LjUyfDUuNDh8NTY3Ljc4"><path d="M8.22 5.48h1426.3v562.3H8.22z"/></clipPath></defs><g clip-path="url(#cpOC4yMnwxNDM0LjUyfDUuNDh8NTY3Ljc4)"><path style="stroke-width:1.07;stroke:#fff;fill:#fff" d="M8.22 5.48h1426.3v562.3H8.22z"/><path style="stroke-width:1.07;stroke:#ccc;stroke-linecap:square;stroke-linejoin:miter;fill:#ccc" d="M178.4 541.7h16.21v.52H178.4zM194.61 541.18h16.21v1.04h-16.21zM227.03 541.7h16.21v.52h-16.21zM275.65 541.7h16.21v.52h-16.21zM291.86 541.7h16.21v.52h-16.21zM308.07 538.59h16.21v3.63h-16.21z"/><path style="stroke-width:1.07;stroke:#ccc;stroke-linecap:square;stroke-linejoin:miter;fill:#ccc" d="M324.27 541.18h16.21v1.04h-16.21zM340.48 541.18h16.21v1.04h-16.21zM356.69 538.07h16.21v4.15h-16.21zM372.9 538.59h16.21v3.63H372.9zM389.11 540.15h16.21v2.08h-16.21z"/><path style="stroke-width:1.07;stroke:#ccc;stroke-linecap:square;stroke-linejoin:miter;fill:#ccc" d="M405.31 533.92h16.21v8.31h-16.21zM421.52 532.36h16.21v9.86h-16.21zM437.73 535.47h16.21v6.75h-16.21zM453.94 530.28h16.21v11.94h-16.21zM470.15 526.13h16.21v16.09h-16.21z"/><path style="stroke-width:1.07;stroke:#ccc;stroke-linecap:square;stroke-linejoin:miter;fill:#ccc" d="M486.35 515.75h16.21v26.47h-16.21zM502.56 514.19h16.21v28.03h-16.21zM518.77 508.48h16.21v33.74h-16.21zM534.98 498.62h16.21v43.6h-16.21zM551.19 477.86h16.21v64.37h-16.21z"/><path style="stroke-width:1.07;stroke:#ccc;stroke-linecap:square;stroke-linejoin:miter;fill:#ccc" d="M567.39 458.13h16.21v84.09h-16.21zM583.6 426.47h16.21v115.75H583.6z"/><path style="stroke-width:1.07;stroke:#ccc;stroke-linecap:square;stroke-linejoin:miter;fill:#ccc" d="M599.81 390.65h16.21v151.57h-16.21zM616.02 332.52h16.21v209.71h-16.21zM632.23 304.49h16.21v237.74h-16.21z"/><path style="stroke-width:1.07;stroke:#ccc;stroke-linecap:square;stroke-linejoin:miter;fill:#ccc" d="M648.43 258.29h16.21v283.93h-16.21zM664.64 225.59h16.21v316.63h-16.21zM680.85 205.86h16.21v336.36h-16.21z"/><path style="stroke-width:1.07;stroke:#ccc;stroke-linecap:square;stroke-linejoin:miter;fill:#ccc" d="M697.06 144.61h16.21v397.61h-16.21zM713.27 147.73h16.21v394.5h-16.21z"/><path style="stroke-width:1.07;stroke:#ccc;stroke-linecap:square;stroke-linejoin:miter;fill:#ccc" d="M729.47 181.99h16.21v360.24h-16.21z"/><path style="stroke-width:1.07;stroke:#ccc;stroke-linecap:square;stroke-linejoin:miter;fill:#ccc" d="M745.68 208.98h16.21v333.24h-16.21zM761.89 207.42h16.21v334.8h-16.21zM778.1 271.27h16.21v270.96H778.1z"/><path style="stroke-width:1.07;stroke:#ccc;stroke-linecap:square;stroke-linejoin:miter;fill:#ccc" d="M794.31 312.79h16.21v229.43h-16.21z"/><path style="stroke-width:1.07;stroke:#ccc;stroke-linecap:square;stroke-linejoin:miter;fill:#ccc" d="M810.51 360.03h16.21v182.19h-16.21zM826.72 407.78h16.21v134.44h-16.21z"/><path style="stroke-width:1.07;stroke:#ccc;stroke-linecap:square;stroke-linejoin:miter;fill:#ccc" d="M842.93 422.83h16.21v119.39h-16.21zM859.14 467.99h16.21v74.23h-16.21zM875.35 470.07h16.21v72.15h-16.21z"/><path style="stroke-width:1.07;stroke:#ccc;stroke-linecap:square;stroke-linejoin:miter;fill:#ccc" d="M891.55 492.39h16.21v49.83h-16.21zM907.76 506.41h16.21v35.82h-16.21zM923.97 520.42h16.21v21.8h-16.21z"/><path style="stroke-width:1.07;stroke:#ccc;stroke-linecap:square;stroke-linejoin:miter;fill:#ccc" d="M940.18 517.31h16.21v24.92h-16.21zM956.39 520.94h16.21v21.28h-16.21z"/><path style="stroke-width:1.07;stroke:#ccc;stroke-linecap:square;stroke-linejoin:miter;fill:#ccc" d="M972.59 529.24h16.21v12.98h-16.21z"/><path style="stroke-width:1.07;stroke:#ccc;stroke-linecap:square;stroke-linejoin:miter;fill:#ccc" d="M988.8 535.99h16.21v6.23H988.8zM1005.01 531.84h16.21v10.38h-16.21zM1021.22 539.63h16.21v2.6h-16.21zM1037.43 538.59h16.21v3.63h-16.21z"/><path style="stroke-width:1.07;stroke:#ccc;stroke-linecap:square;stroke-linejoin:miter;fill:#ccc" d="M1053.63 537.55h16.21v4.67h-16.21z"/><path style="stroke-width:1.07;stroke:#ccc;stroke-linecap:square;stroke-linejoin:miter;fill:#ccc" d="M1069.84 540.66h16.21v1.56h-16.21zM1086.05 541.18h16.21v1.04h-16.21zM1102.26 541.18h16.21v1.04h-16.21zM1118.47 541.7h16.21v.52h-16.21z"/><path style="stroke-width:1.07;stroke:#ccc;stroke-linecap:square;stroke-linejoin:miter;fill:#ccc" d="M1134.67 541.18h16.21v1.04h-16.21zM1150.88 541.18h16.21v1.04h-16.21z"/><path style="stroke-width:1.07;stroke:#ccc;stroke-linecap:square;stroke-linejoin:miter;fill:#ccc" d="M1167.09 541.18h16.21v1.04h-16.21zM1183.3 541.18h16.21v1.04h-16.21z"/><path style="stroke-width:1.07;stroke:#ccc;stroke-linecap:square;stroke-linejoin:miter;fill:#ccc" d="M1199.5 541.7h16.21v.52h-16.21zM1231.92 541.18h16.21v1.04h-16.21zM1248.13 541.7h16.21v.52h-16.21z"/></g></svg>