<svg xmlns="http://www.w3.org/2000/svg" class="svglite" width="1920" height="768" viewBox="0 0 1440 576"><defs><style>.svglite rect{fill:none;stroke:#000;stroke-linecap:round;stroke-linejoin:round;stroke-miterlimit:10}</style></defs><rect width="100%" height="100%" style="stroke:none;fill:none"/><defs><clipPath id="cpMC4wMHwxNDQwLjAwfDAuMDB8NTc2LjAw"><path d="M0 0h1440v576H0z"/></clipPath></defs><defs><clipPath id="cpOC4yMnwxNDM0LjUyfDUuNDh8NTY3Ljc4"><path d="M8.22 5.48h1426.3v562.3H8.22z"/></clipPath></defs><g clip-path="url(#cpOC4yMnwxNDM0LjUyfDUuNDh8NTY3Ljc4)"><path style="stroke-width:1.07;stroke:#fff;fill:#fff" d="M8.22 5.48h1426.3v562.3H8.22z"/><path style="stroke-width:1.07;stroke:#ccc;stroke-linecap:square;stroke-linejoin:miter;fill:#ccc" d="M113.57 541.76h16.21v.46h-16.21zM145.99 541.76h16.21v.46h-16.21z"/><path style="stroke-width:1.07;stroke:#ccc;stroke-linecap:square;stroke-linejoin:miter;fill:#ccc" d="M162.19 541.76h16.21v.46h-16.21zM178.4 541.76h16.21v.46H178.4zM194.61 541.3h16.21v.93h-16.21zM227.03 541.76h16.21v.46h-16.21zM275.65 541.76h16.21v.46h-16.21zM291.86 541.76h16.21v.46h-16.21zM308.07 538.52h16.21v3.7h-16.21z"/><path style="stroke-width:1.07;stroke:#ccc;stroke-linecap:square;stroke-linejoin:miter;fill:#ccc" d="M324.27 541.3h16.21v.93h-16.21zM340.48 541.3h16.21v.93h-16.21zM356.69 538.06h16.21v4.16h-16.21zM372.9 538.98h16.21v3.24H372.9zM389.11 538.98h16.21v3.24h-16.21z"/><path style="stroke-width:1.07;stroke:#ccc;stroke-linecap:square;stroke-linejoin:miter;fill:#ccc" d="M405.31 534.82h16.21v7.4h-16.21zM421.52 532.97h16.21v9.25h-16.21zM437.73 534.82h16.21v7.4h-16.21zM453.94 530.19h16.21v12.03h-16.21zM470.15 526.49h16.21v15.73h-16.21z"/><path style="stroke-width:1.07;stroke:#ccc;stroke-linecap:square;stroke-linejoin:miter;fill:#ccc" d="M486.35 515.38h16.21v26.84h-16.21zM502.56 511.68h16.21v30.54h-16.21zM518.77 507.98h16.21v34.24h-16.21zM534.98 494.56h16.21v47.66h-16.21zM551.19 475.59h16.21v66.63h-16.21z"/><path style="stroke-width:1.07;stroke:#ccc;stroke-linecap:square;stroke-linejoin:miter;fill:#ccc" d="M567.39 458.47h16.21v83.75h-16.21zM583.6 425.15h16.21v117.07H583.6z"/><path style="stroke-width:1.07;stroke:#ccc;stroke-linecap:square;stroke-linejoin:miter;fill:#ccc" d="M599.81 387.21h16.21v155.02h-16.21zM616.02 339.54h16.21v202.68h-16.21zM632.23 303.45h16.21v238.77h-16.21z"/><path style="stroke-width:1.07;stroke:#ccc;stroke-linecap:square;stroke-linejoin:miter;fill:#ccc" d="M648.43 262.27h16.21v279.95h-16.21zM664.64 228.95h16.21v313.27h-16.21zM680.85 207.2h16.21v335.02h-16.21z"/><path style="stroke-width:1.07;stroke:#ccc;stroke-linecap:square;stroke-linejoin:miter;fill:#ccc" d="M697.06 147.51h16.21v394.71h-16.21zM713.27 148.9h16.21v393.32h-16.21z"/><path style="stroke-width:1.07;stroke:#ccc;stroke-linecap:square;stroke-linejoin:miter;fill:#ccc" d="M729.47 175.74h16.21v366.49h-16.21z"/><path style="stroke-width:1.07;stroke:#ccc;stroke-linecap:square;stroke-linejoin:miter;fill:#ccc" d="M745.68 205.35h16.21v336.87h-16.21zM761.89 212.29h16.21v329.93h-16.21zM778.1 272.45h16.21v269.77H778.1z"/><path style="stroke-width:1.07;stroke:#ccc;stroke-linecap:square;stroke-linejoin:miter;fill:#ccc" d="M794.31 316.87h16.21v225.35h-16.21z"/><path style="stroke-width:1.07;stroke:#ccc;stroke-linecap:square;stroke-linejoin:miter;fill:#ccc" d="M810.51 364.53h16.21v177.69h-16.21zM826.72 403.86h16.21v138.36h-16.21z"/><path style="stroke-width:1.07;stroke:#ccc;stroke-linecap:square;stroke-linejoin:miter;fill:#ccc" d="M842.93 419.6h16.21v122.62h-16.21zM859.14 470.5h16.21v71.72h-16.21zM875.35 468.18h16.21v74.04h-16.21z"/><path style="stroke-width:1.07;stroke:#ccc;stroke-linecap:square;stroke-linejoin:miter;fill:#ccc" d="M891.55 491.32h16.21v50.9h-16.21zM907.76 504.74h16.21v37.48h-16.21zM923.97 519.55h16.21v22.67h-16.21z"/><path style="stroke-width:1.07;stroke:#ccc;stroke-linecap:square;stroke-linejoin:miter;fill:#ccc" d="M940.18 516.77h16.21v25.45h-16.21zM956.39 522.79h16.21v19.43h-16.21z"/><path style="stroke-width:1.07;stroke:#ccc;stroke-linecap:square;stroke-linejoin:miter;fill:#ccc" d="M972.59 528.8h16.21v13.42h-16.21z"/><path style="stroke-width:1.07;stroke:#ccc;stroke-linecap:square;stroke-linejoin:miter;fill:#ccc" d="M988.8 535.74h16.21v6.48H988.8zM1005.01 532.5h16.21v9.72h-16.21zM1021.22 538.98h16.21v3.24h-16.21zM1037.43 538.52h16.21v3.7h-16.21z"/><path style="stroke-width:1.07;stroke:#ccc;stroke-linecap:square;stroke-linejoin:miter;fill:#ccc" d="M1053.63 537.59h16.21v4.63h-16.21z"/><path style="stroke-width:1.07;stroke:#ccc;stroke-linecap:square;stroke-linejoin:miter;fill:#ccc" d="M1069.84 540.83h16.21v1.39h-16.21zM1086.05 541.3h16.21v.93h-16.21zM1102.26 541.3h16.21v.93h-16.21zM1118.47 541.3h16.21v.93h-16.21z"/><path style="stroke-width:1.07;stroke:#ccc;stroke-linecap:square;stroke-linejoin:miter;fill:#ccc" d="M1134.67 541.3h16.21v.93h-16.21zM1150.88 541.3h16.21v.93h-16.21z"/><path style="stroke-width:1.07;stroke:#ccc;stroke-linecap:square;stroke-linejoin:miter;fill:#ccc" d="M1167.09 541.3h16.21v.93h-16.21zM1183.3 541.3h16.21v.93h-16.21z"/><path style="stroke-width:1.07;stroke:#ccc;stroke-linecap:square;stroke-linejoin:miter;fill:#ccc" d="M1199.5 541.76h16.21v.46h-16.21zM1231.92 541.3h16.21v.93h-16.21zM1248.13 541.76h16.21v.46h-16.21z"/></g></svg>