<svg xmlns="http://www.w3.org/2000/svg" class="svglite" width="1920" height="768" viewBox="0 0 1440 576"><defs><style>.svglite rect{fill:none;stroke:#000;stroke-linecap:round;stroke-linejoin:round;stroke-miterlimit:10}</style></defs><rect width="100%" height="100%" style="stroke:none;fill:none"/><defs><clipPath id="cpMC4wMHwxNDQwLjAwfDAuMDB8NTc2LjAw"><path d="M0 0h1440v576H0z"/></clipPath></defs><defs><clipPath id="cpOC4yMnwxNDM0LjUyfDUuNDh8NTY3Ljc4"><path d="M8.22 5.48h1426.3v562.3H8.22z"/></clipPath></defs><g clip-path="url(#cpOC4yMnwxNDM0LjUyfDUuNDh8NTY3Ljc4)"><path style="stroke-width:1.07;stroke:#fff;fill:#fff" d="M8.22 5.48h1426.3v562.3H8.22z"/><path style="stroke-width:1.07;stroke:#ccc;stroke-linecap:square;stroke-linejoin:miter;fill:#ccc" d="M97.36 541.81h16.21v.41H97.36zM113.57 541.81h16.21v.41h-16.21zM145.99 541.81h16.21v.41h-16.21z"/><path style="stroke-width:1.07;stroke:#ccc;stroke-linecap:square;stroke-linejoin:miter;fill:#ccc" d="M162.19 541.81h16.21v.41h-16.21zM178.4 541.81h16.21v.41H178.4zM194.61 541.39h16.21v.83h-16.21zM227.03 541.81h16.21v.41h-16.21z"/><path style="stroke-width:1.07;stroke:#ccc;stroke-linecap:square;stroke-linejoin:miter;fill:#ccc" d="M243.23 541.81h16.21v.41h-16.21zM275.65 541.81h16.21v.41h-16.21zM291.86 541.81h16.21v.41h-16.21zM308.07 538.91h16.21v3.31h-16.21z"/><path style="stroke-width:1.07;stroke:#ccc;stroke-linecap:square;stroke-linejoin:miter;fill:#ccc" d="M324.27 541.39h16.21v.83h-16.21zM340.48 541.39h16.21v.83h-16.21zM356.69 538.5h16.21v3.73h-16.21zM372.9 538.91h16.21v3.31H372.9zM389.11 538.5h16.21v3.73h-16.21z"/><path style="stroke-width:1.07;stroke:#ccc;stroke-linecap:square;stroke-linejoin:miter;fill:#ccc" d="M405.31 534.36h16.21v7.87h-16.21zM421.52 533.53h16.21v8.69h-16.21zM437.73 535.18h16.21v7.04h-16.21zM453.94 529.8h16.21v12.42h-16.21zM470.15 524.83h16.21v17.39h-16.21z"/><path style="stroke-width:1.07;stroke:#ccc;stroke-linecap:square;stroke-linejoin:miter;fill:#ccc" d="M486.35 516.55h16.21v25.67h-16.21zM502.56 509.93h16.21v32.29h-16.21zM518.77 507.86h16.21v34.36h-16.21zM534.98 497.09h16.21v45.13h-16.21zM551.19 471.84h16.21v70.38h-16.21z"/><path style="stroke-width:1.07;stroke:#ccc;stroke-linecap:square;stroke-linejoin:miter;fill:#ccc" d="M567.39 459.83h16.21v82.39h-16.21zM583.6 427.95h16.21v114.27H583.6z"/><path style="stroke-width:1.07;stroke:#ccc;stroke-linecap:square;stroke-linejoin:miter;fill:#ccc" d="M599.81 387.38h16.21v154.84h-16.21zM616.02 343.91h16.21v198.31h-16.21zM632.23 309.96h16.21v232.26h-16.21z"/><path style="stroke-width:1.07;stroke:#ccc;stroke-linecap:square;stroke-linejoin:miter;fill:#ccc" d="M648.43 261.93h16.21v280.29h-16.21zM664.64 235.02h16.21v307.2h-16.21zM680.85 209.77h16.21v332.45h-16.21z"/><path style="stroke-width:1.07;stroke:#ccc;stroke-linecap:square;stroke-linejoin:miter;fill:#ccc" d="M697.06 145.18h16.21v397.04h-16.21zM713.27 149.74h16.21v392.49h-16.21z"/><path style="stroke-width:1.07;stroke:#ccc;stroke-linecap:square;stroke-linejoin:miter;fill:#ccc" d="M729.47 172.51h16.21v369.71h-16.21z"/><path style="stroke-width:1.07;stroke:#ccc;stroke-linecap:square;stroke-linejoin:miter;fill:#ccc" d="M745.68 199.83h16.21v342.39h-16.21zM761.89 208.53h16.21v333.7h-16.21zM778.1 275.6h16.21v266.63H778.1z"/><path style="stroke-width:1.07;stroke:#ccc;stroke-linecap:square;stroke-linejoin:miter;fill:#ccc" d="M794.31 315.76h16.21v226.47h-16.21z"/><path style="stroke-width:1.07;stroke:#ccc;stroke-linecap:square;stroke-linejoin:miter;fill:#ccc" d="M810.51 359.23h16.21v182.99h-16.21zM826.72 403.94h16.21v138.28h-16.21z"/><path style="stroke-width:1.07;stroke:#ccc;stroke-linecap:square;stroke-linejoin:miter;fill:#ccc" d="M842.93 419.26h16.21v122.96h-16.21zM859.14 466.46h16.21v75.76h-16.21zM875.35 468.94h16.21v73.28h-16.21z"/><path style="stroke-width:1.07;stroke:#ccc;stroke-linecap:square;stroke-linejoin:miter;fill:#ccc" d="M891.55 492.13h16.21v50.1h-16.21zM907.76 505.37h16.21v36.85h-16.21zM923.97 518.62h16.21v23.6h-16.21z"/><path style="stroke-width:1.07;stroke:#ccc;stroke-linecap:square;stroke-linejoin:miter;fill:#ccc" d="M940.18 518.62h16.21v23.6h-16.21zM956.39 521.93h16.21v20.29h-16.21z"/><path style="stroke-width:1.07;stroke:#ccc;stroke-linecap:square;stroke-linejoin:miter;fill:#ccc" d="M972.59 529.39h16.21v12.83h-16.21z"/><path style="stroke-width:1.07;stroke:#ccc;stroke-linecap:square;stroke-linejoin:miter;fill:#ccc" d="M988.8 535.6h16.21v6.62H988.8zM1005.01 532.7h16.21v9.52h-16.21zM1021.22 537.25h16.21v4.97h-16.21zM1037.43 538.91h16.21v3.31h-16.21z"/><path style="stroke-width:1.07;stroke:#ccc;stroke-linecap:square;stroke-linejoin:miter;fill:#ccc" d="M1053.63 537.25h16.21v4.97h-16.21z"/><path style="stroke-width:1.07;stroke:#ccc;stroke-linecap:square;stroke-linejoin:miter;fill:#ccc" d="M1069.84 540.98h16.21v1.24h-16.21zM1086.05 541.39h16.21v.83h-16.21zM1102.26 540.98h16.21v1.24h-16.21zM1118.47 540.98h16.21v1.24h-16.21z"/><path style="stroke-width:1.07;stroke:#ccc;stroke-linecap:square;stroke-linejoin:miter;fill:#ccc" d="M1134.67 541.39h16.21v.83h-16.21zM1150.88 541.39h16.21v.83h-16.21z"/><path style="stroke-width:1.07;stroke:#ccc;stroke-linecap:square;stroke-linejoin:miter;fill:#ccc" d="M1167.09 541.39h16.21v.83h-16.21zM1183.3 541.39h16.21v.83h-16.21z"/><path style="stroke-width:1.07;stroke:#ccc;stroke-linecap:square;stroke-linejoin:miter;fill:#ccc" d="M1199.5 541.81h16.21v.41h-16.21zM1231.92 541.39h16.21v.83h-16.21zM1248.13 541.81h16.21v.41h-16.21z"/></g></svg>