<svg xmlns="http://www.w3.org/2000/svg" class="svglite" width="1920" height="768" viewBox="0 0 1440 576"><defs><style>.svglite rect{fill:none;stroke:#000;stroke-linecap:round;stroke-linejoin:round;stroke-miterlimit:10}</style></defs><rect width="100%" height="100%" style="stroke:none;fill:none"/><defs><clipPath id="cpMC4wMHwxNDQwLjAwfDAuMDB8NTc2LjAw"><path d="M0 0h1440v576H0z"/></clipPath></defs><defs><clipPath id="cpOC4yMnwxNDM0LjUyfDUuNDh8NTY3Ljc4"><path d="M8.22 5.48h1426.3v562.3H8.22z"/></clipPath></defs><g clip-path="url(#cpOC4yMnwxNDM0LjUyfDUuNDh8NTY3Ljc4)"><path style="stroke-width:1.07;stroke:#fff;fill:#fff" d="M8.22 5.48h1426.3v562.3H8.22z"/><path style="stroke-width:1.07;stroke:#ccc;stroke-linecap:square;stroke-linejoin:miter;fill:#ccc" d="M97.36 541.85h16.21v.37H97.36zM113.57 541.85h16.21v.37h-16.21zM145.99 541.85h16.21v.37h-16.21z"/><path style="stroke-width:1.07;stroke:#ccc;stroke-linecap:square;stroke-linejoin:miter;fill:#ccc" d="M162.19 541.85h16.21v.37h-16.21zM178.4 541.85h16.21v.37H178.4zM194.61 541.48h16.21v.74h-16.21zM227.03 541.85h16.21v.37h-16.21z"/><path style="stroke-width:1.07;stroke:#ccc;stroke-linecap:square;stroke-linejoin:miter;fill:#ccc" d="M243.23 541.85h16.21v.37h-16.21zM275.65 541.85h16.21v.37h-16.21zM291.86 541.85h16.21v.37h-16.21zM308.07 538.88h16.21v3.35h-16.21z"/><path style="stroke-width:1.07;stroke:#ccc;stroke-linecap:square;stroke-linejoin:miter;fill:#ccc" d="M324.27 541.48h16.21v.74h-16.21zM340.48 541.11h16.21v1.12h-16.21zM356.69 537.39h16.21v4.83h-16.21zM372.9 538.88h16.21v3.35H372.9zM389.11 538.5h16.21v3.72h-16.21z"/><path style="stroke-width:1.07;stroke:#ccc;stroke-linecap:square;stroke-linejoin:miter;fill:#ccc" d="M405.31 535.16h16.21v7.07h-16.21zM421.52 534.04h16.21v8.18h-16.21zM437.73 534.78h16.21v7.44h-16.21zM453.94 528.84h16.21v13.39h-16.21zM470.15 524.74h16.21v17.48h-16.21z"/><path style="stroke-width:1.07;stroke:#ccc;stroke-linecap:square;stroke-linejoin:miter;fill:#ccc" d="M486.35 517.31h16.21v24.91h-16.21zM502.56 511.36h16.21v30.86h-16.21zM518.77 506.52h16.21v35.7h-16.21zM534.98 496.86h16.21v45.37h-16.21zM551.19 470.83h16.21v71.4h-16.21z"/><path style="stroke-width:1.07;stroke:#ccc;stroke-linecap:square;stroke-linejoin:miter;fill:#ccc" d="M567.39 456.7h16.21v85.53h-16.21zM583.6 424.72h16.21v117.5H583.6z"/><path style="stroke-width:1.07;stroke:#ccc;stroke-linecap:square;stroke-linejoin:miter;fill:#ccc" d="M599.81 388.28h16.21v153.95h-16.21zM616.02 349.6h16.21v192.62h-16.21zM632.23 308.7h16.21v233.52h-16.21z"/><path style="stroke-width:1.07;stroke:#ccc;stroke-linecap:square;stroke-linejoin:miter;fill:#ccc" d="M648.43 261.85h16.21v280.38h-16.21zM664.64 230.61h16.21v311.61h-16.21zM680.85 203.09h16.21v339.13h-16.21z"/><path style="stroke-width:1.07;stroke:#ccc;stroke-linecap:square;stroke-linejoin:miter;fill:#ccc" d="M697.06 147.32h16.21v394.91h-16.21zM713.27 152.52h16.21v389.7h-16.21z"/><path style="stroke-width:1.07;stroke:#ccc;stroke-linecap:square;stroke-linejoin:miter;fill:#ccc" d="M729.47 172.23h16.21v369.99h-16.21z"/><path style="stroke-width:1.07;stroke:#ccc;stroke-linecap:square;stroke-linejoin:miter;fill:#ccc" d="M745.68 196.77h16.21v345.45h-16.21zM761.89 214.99h16.21v327.23h-16.21zM778.1 278.21h16.21v264.01H778.1z"/><path style="stroke-width:1.07;stroke:#ccc;stroke-linecap:square;stroke-linejoin:miter;fill:#ccc" d="M794.31 321.71h16.21v220.51h-16.21z"/><path style="stroke-width:1.07;stroke:#ccc;stroke-linecap:square;stroke-linejoin:miter;fill:#ccc" d="M810.51 357.04h16.21v185.18h-16.21zM826.72 402.78h16.21v139.44h-16.21z"/><path style="stroke-width:1.07;stroke:#ccc;stroke-linecap:square;stroke-linejoin:miter;fill:#ccc" d="M842.93 421.37h16.21v120.85h-16.21zM859.14 467.11h16.21v75.11h-16.21zM875.35 468.97h16.21v73.25h-16.21z"/><path style="stroke-width:1.07;stroke:#ccc;stroke-linecap:square;stroke-linejoin:miter;fill:#ccc" d="M891.55 491.28h16.21v50.94h-16.21zM907.76 505.04h16.21v37.19h-16.21zM923.97 518.05h16.21v24.17h-16.21z"/><path style="stroke-width:1.07;stroke:#ccc;stroke-linecap:square;stroke-linejoin:miter;fill:#ccc" d="M940.18 517.68h16.21v24.54h-16.21zM956.39 521.77h16.21v20.45h-16.21z"/><path style="stroke-width:1.07;stroke:#ccc;stroke-linecap:square;stroke-linejoin:miter;fill:#ccc" d="M972.59 529.58h16.21v12.64h-16.21z"/><path style="stroke-width:1.07;stroke:#ccc;stroke-linecap:square;stroke-linejoin:miter;fill:#ccc" d="M988.8 535.9h16.21v6.32H988.8zM1005.01 531.81h16.21v10.41h-16.21zM1021.22 537.76h16.21v4.46h-16.21zM1037.43 538.88h16.21v3.35h-16.21z"/><path style="stroke-width:1.07;stroke:#ccc;stroke-linecap:square;stroke-linejoin:miter;fill:#ccc" d="M1053.63 537.39h16.21v4.83h-16.21z"/><path style="stroke-width:1.07;stroke:#ccc;stroke-linecap:square;stroke-linejoin:miter;fill:#ccc" d="M1069.84 540.73h16.21v1.49h-16.21zM1086.05 541.11h16.21v1.12h-16.21zM1102.26 541.11h16.21v1.12h-16.21zM1118.47 541.11h16.21v1.12h-16.21z"/><path style="stroke-width:1.07;stroke:#ccc;stroke-linecap:square;stroke-linejoin:miter;fill:#ccc" d="M1134.67 541.48h16.21v.74h-16.21zM1150.88 541.48h16.21v.74h-16.21z"/><path style="stroke-width:1.07;stroke:#ccc;stroke-linecap:square;stroke-linejoin:miter;fill:#ccc" d="M1167.09 541.48h16.21v.74h-16.21zM1183.3 541.48h16.21v.74h-16.21z"/><path style="stroke-width:1.07;stroke:#ccc;stroke-linecap:square;stroke-linejoin:miter;fill:#ccc" d="M1199.5 541.85h16.21v.37h-16.21zM1231.92 541.48h16.21v.74h-16.21zM1248.13 541.85h16.21v.37h-16.21z"/></g></svg>