<svg xmlns="http://www.w3.org/2000/svg" class="svglite" width="1920" height="768" viewBox="0 0 1440 576"><defs><style>.svglite rect{fill:none;stroke:#000;stroke-linecap:round;stroke-linejoin:round;stroke-miterlimit:10}</style></defs><rect width="100%" height="100%" style="stroke:none;fill:none"/><defs><clipPath id="cpMC4wMHwxNDQwLjAwfDAuMDB8NTc2LjAw"><path d="M0 0h1440v576H0z"/></clipPath></defs><defs><clipPath id="cpOC4yMnwxNDM0LjUyfDUuNDh8NTY3Ljc4"><path d="M8.22 5.48h1426.3v562.3H8.22z"/></clipPath></defs><g clip-path="url(#cpOC4yMnwxNDM0LjUyfDUuNDh8NTY3Ljc4)"><path style="stroke-width:1.07;stroke:#fff;fill:#fff" d="M8.22 5.48h1426.3v562.3H8.22z"/><path style="stroke-width:1.07;stroke:#ccc;stroke-linecap:square;stroke-linejoin:miter;fill:#ccc" d="M372.9 513.82h16.21v28.4H372.9zM470.15 485.42h16.21v56.8h-16.21z"/><path style="stroke-width:1.07;stroke:#ccc;stroke-linecap:square;stroke-linejoin:miter;fill:#ccc" d="M486.35 513.82h16.21v28.4h-16.21zM502.56 485.42h16.21v56.8h-16.21zM534.98 513.82h16.21v28.4h-16.21zM551.19 513.82h16.21v28.4h-16.21z"/><path style="stroke-width:1.07;stroke:#ccc;stroke-linecap:square;stroke-linejoin:miter;fill:#ccc" d="M567.39 513.82h16.21v28.4h-16.21zM583.6 428.63h16.21v113.6H583.6z"/><path style="stroke-width:1.07;stroke:#ccc;stroke-linecap:square;stroke-linejoin:miter;fill:#ccc" d="M599.81 343.43h16.21v198.79h-16.21zM616.02 428.63h16.21v113.6h-16.21zM632.23 286.63h16.21v255.59h-16.21z"/><path style="stroke-width:1.07;stroke:#ccc;stroke-linecap:square;stroke-linejoin:miter;fill:#ccc" d="M648.43 144.63h16.21v397.59h-16.21zM664.64 59.44h16.21v482.78h-16.21zM680.85 286.63h16.21v255.59h-16.21z"/><path style="stroke-width:1.07;stroke:#ccc;stroke-linecap:square;stroke-linejoin:miter;fill:#ccc" d="M697.06 59.44h16.21v482.78h-16.21zM713.27 59.44h16.21v482.78h-16.21z"/><path style="stroke-width:1.07;stroke:#ccc;stroke-linecap:square;stroke-linejoin:miter;fill:#ccc" d="M729.47 144.63h16.21v397.59h-16.21z"/><path style="stroke-width:1.07;stroke:#ccc;stroke-linecap:square;stroke-linejoin:miter;fill:#ccc" d="M745.68 343.43h16.21v198.79h-16.21zM761.89 173.03h16.21v369.19h-16.21zM778.1 457.02h16.21v85.2H778.1z"/><path style="stroke-width:1.07;stroke:#ccc;stroke-linecap:square;stroke-linejoin:miter;fill:#ccc" d="M794.31 173.03h16.21v369.19h-16.21z"/><path style="stroke-width:1.07;stroke:#ccc;stroke-linecap:square;stroke-linejoin:miter;fill:#ccc" d="M810.51 286.63h16.21v255.59h-16.21zM826.72 485.42h16.21v56.8h-16.21z"/><path style="stroke-width:1.07;stroke:#ccc;stroke-linecap:square;stroke-linejoin:miter;fill:#ccc" d="M842.93 457.02h16.21v85.2h-16.21zM859.14 428.63h16.21v113.6h-16.21zM875.35 513.82h16.21v28.4h-16.21z"/><path style="stroke-width:1.07;stroke:#ccc;stroke-linecap:square;stroke-linejoin:miter;fill:#ccc" d="M891.55 485.42h16.21v56.8h-16.21zM907.76 513.82h16.21v28.4h-16.21zM923.97 513.82h16.21v28.4h-16.21z"/></g></svg>