<svg xmlns="http://www.w3.org/2000/svg" class="svglite" width="1920" height="768" viewBox="0 0 1440 576"><defs><style>.svglite rect{fill:none;stroke:#000;stroke-linecap:round;stroke-linejoin:round;stroke-miterlimit:10}</style></defs><rect width="100%" height="100%" style="stroke:none;fill:none"/><defs><clipPath id="cpMC4wMHwxNDQwLjAwfDAuMDB8NTc2LjAw"><path d="M0 0h1440v576H0z"/></clipPath></defs><defs><clipPath id="cpOC4yMnwxNDM0LjUyfDUuNDh8NTY3Ljc4"><path d="M8.22 5.48h1426.3v562.3H8.22z"/></clipPath></defs><g clip-path="url(#cpOC4yMnwxNDM0LjUyfDUuNDh8NTY3Ljc4)"><path style="stroke-width:1.07;stroke:#fff;fill:#fff" d="M8.22 5.48h1426.3v562.3H8.22z"/><path style="stroke-width:1.07;stroke:#ccc;stroke-linecap:square;stroke-linejoin:miter;fill:#ccc" d="M97.36 541.89h16.21v.34H97.36zM113.57 541.89h16.21v.34h-16.21zM145.99 541.89h16.21v.34h-16.21z"/><path style="stroke-width:1.07;stroke:#ccc;stroke-linecap:square;stroke-linejoin:miter;fill:#ccc" d="M162.19 541.89h16.21v.34h-16.21zM178.4 541.89h16.21v.34H178.4zM194.61 541.55h16.21v.67h-16.21zM227.03 541.55h16.21v.67h-16.21z"/><path style="stroke-width:1.07;stroke:#ccc;stroke-linecap:square;stroke-linejoin:miter;fill:#ccc" d="M243.23 541.55h16.21v.67h-16.21zM275.65 541.89h16.21v.34h-16.21zM291.86 541.89h16.21v.34h-16.21zM308.07 539.2h16.21v3.02h-16.21z"/><path style="stroke-width:1.07;stroke:#ccc;stroke-linecap:square;stroke-linejoin:miter;fill:#ccc" d="M324.27 541.55h16.21v.67h-16.21zM340.48 540.88h16.21v1.34h-16.21zM356.69 537.19h16.21v5.03h-16.21zM372.9 538.2h16.21v4.02H372.9zM389.11 538.87h16.21v3.35h-16.21z"/><path style="stroke-width:1.07;stroke:#ccc;stroke-linecap:square;stroke-linejoin:miter;fill:#ccc" d="M405.31 534.85h16.21v7.38h-16.21zM421.52 533.84h16.21v8.38h-16.21zM437.73 533.84h16.21v8.38h-16.21zM453.94 528.81h16.21v13.41h-16.21zM470.15 523.78h16.21v18.44h-16.21z"/><path style="stroke-width:1.07;stroke:#ccc;stroke-linecap:square;stroke-linejoin:miter;fill:#ccc" d="M486.35 516.74h16.21v25.48h-16.21zM502.56 509.7h16.21v32.52h-16.21zM518.77 506.35h16.21v35.87h-16.21zM534.98 497.3h16.21v44.93h-16.21zM551.19 472.49h16.21v69.74h-16.21z"/><path style="stroke-width:1.07;stroke:#ccc;stroke-linecap:square;stroke-linejoin:miter;fill:#ccc" d="M567.39 456.73h16.21v85.49h-16.21zM583.6 425.88h16.21v116.34H583.6z"/><path style="stroke-width:1.07;stroke:#ccc;stroke-linecap:square;stroke-linejoin:miter;fill:#ccc" d="M599.81 386.99h16.21v155.23h-16.21zM616.02 351.79h16.21v190.43h-16.21zM632.23 313.57h16.21v228.65h-16.21z"/><path style="stroke-width:1.07;stroke:#ccc;stroke-linecap:square;stroke-linejoin:miter;fill:#ccc" d="M648.43 265.96h16.21v276.26h-16.21zM664.64 231.09h16.21v311.13h-16.21zM680.85 194.88h16.21v347.34h-16.21z"/><path style="stroke-width:1.07;stroke:#ccc;stroke-linecap:square;stroke-linejoin:miter;fill:#ccc" d="M697.06 152.98h16.21v389.25h-16.21zM713.27 153.65h16.21v388.58h-16.21z"/><path style="stroke-width:1.07;stroke:#ccc;stroke-linecap:square;stroke-linejoin:miter;fill:#ccc" d="M729.47 169.4h16.21v372.82h-16.21z"/><path style="stroke-width:1.07;stroke:#ccc;stroke-linecap:square;stroke-linejoin:miter;fill:#ccc" d="M745.68 194.88h16.21v347.34h-16.21zM761.89 218.35h16.21v323.87h-16.21zM778.1 278.7h16.21v263.52H778.1z"/><path style="stroke-width:1.07;stroke:#ccc;stroke-linecap:square;stroke-linejoin:miter;fill:#ccc" d="M794.31 324.63h16.21v217.59h-16.21z"/><path style="stroke-width:1.07;stroke:#ccc;stroke-linecap:square;stroke-linejoin:miter;fill:#ccc" d="M810.51 356.48h16.21v185.74h-16.21zM826.72 403.76h16.21v138.47h-16.21z"/><path style="stroke-width:1.07;stroke:#ccc;stroke-linecap:square;stroke-linejoin:miter;fill:#ccc" d="M842.93 418.51h16.21v123.71h-16.21zM859.14 464.44h16.21v77.78h-16.21zM875.35 470.14h16.21v72.08h-16.21z"/><path style="stroke-width:1.07;stroke:#ccc;stroke-linecap:square;stroke-linejoin:miter;fill:#ccc" d="M891.55 491.26h16.21v50.96h-16.21zM907.76 503.67h16.21v38.56h-16.21zM923.97 516.07h16.21v26.15h-16.21z"/><path style="stroke-width:1.07;stroke:#ccc;stroke-linecap:square;stroke-linejoin:miter;fill:#ccc" d="M940.18 517.08h16.21v25.15h-16.21zM956.39 520.76h16.21v21.46h-16.21z"/><path style="stroke-width:1.07;stroke:#ccc;stroke-linecap:square;stroke-linejoin:miter;fill:#ccc" d="M972.59 528.81h16.21v13.41h-16.21z"/><path style="stroke-width:1.07;stroke:#ccc;stroke-linecap:square;stroke-linejoin:miter;fill:#ccc" d="M988.8 536.19h16.21v6.03H988.8zM1005.01 531.83h16.21v10.39h-16.21zM1021.22 538.2h16.21v4.02h-16.21zM1037.43 538.87h16.21v3.35h-16.21z"/><path style="stroke-width:1.07;stroke:#ccc;stroke-linecap:square;stroke-linejoin:miter;fill:#ccc" d="M1053.63 537.86h16.21v4.36h-16.21z"/><path style="stroke-width:1.07;stroke:#ccc;stroke-linecap:square;stroke-linejoin:miter;fill:#ccc" d="M1069.84 540.88h16.21v1.34h-16.21zM1086.05 540.88h16.21v1.34h-16.21zM1102.26 541.22h16.21v1.01h-16.21zM1118.47 541.22h16.21v1.01h-16.21z"/><path style="stroke-width:1.07;stroke:#ccc;stroke-linecap:square;stroke-linejoin:miter;fill:#ccc" d="M1134.67 541.55h16.21v.67h-16.21zM1150.88 541.22h16.21v1.01h-16.21z"/><path style="stroke-width:1.07;stroke:#ccc;stroke-linecap:square;stroke-linejoin:miter;fill:#ccc" d="M1167.09 541.55h16.21v.67h-16.21zM1183.3 541.22h16.21v1.01h-16.21z"/><path style="stroke-width:1.07;stroke:#ccc;stroke-linecap:square;stroke-linejoin:miter;fill:#ccc" d="M1199.5 541.55h16.21v.67h-16.21zM1231.92 541.55h16.21v.67h-16.21zM1248.13 541.89h16.21v.34h-16.21z"/></g></svg>