<svg xmlns="http://www.w3.org/2000/svg" class="svglite" width="1920" height="768" viewBox="0 0 1440 576"><defs><style>.svglite rect{fill:none;stroke:#000;stroke-linecap:round;stroke-linejoin:round;stroke-miterlimit:10}</style></defs><rect width="100%" height="100%" style="stroke:none;fill:none"/><defs><clipPath id="cpMC4wMHwxNDQwLjAwfDAuMDB8NTc2LjAw"><path d="M0 0h1440v576H0z"/></clipPath></defs><defs><clipPath id="cpOC4yMnwxNDM0LjUyfDUuNDh8NTY3Ljc4"><path d="M8.22 5.48h1426.3v562.3H8.22z"/></clipPath></defs><g clip-path="url(#cpOC4yMnwxNDM0LjUyfDUuNDh8NTY3Ljc4)"><path style="stroke-width:1.07;stroke:#fff;fill:#fff" d="M8.22 5.48h1426.3v562.3H8.22z"/><path style="stroke-width:1.07;stroke:#ccc;stroke-linecap:square;stroke-linejoin:miter;fill:#ccc" d="M324.27 522.56h16.21v19.66h-16.21zM372.9 522.56h16.21v19.66H372.9zM405.31 522.56h16.21v19.66h-16.21zM437.73 522.56h16.21v19.66h-16.21zM470.15 483.24h16.21v58.98h-16.21z"/><path style="stroke-width:1.07;stroke:#ccc;stroke-linecap:square;stroke-linejoin:miter;fill:#ccc" d="M486.35 522.56h16.21v19.66h-16.21zM502.56 502.9h16.21v39.32h-16.21zM534.98 502.9h16.21v39.32h-16.21zM551.19 522.56h16.21v19.66h-16.21z"/><path style="stroke-width:1.07;stroke:#ccc;stroke-linecap:square;stroke-linejoin:miter;fill:#ccc" d="M567.39 502.9h16.21v39.32h-16.21zM583.6 424.26h16.21v117.97H583.6z"/><path style="stroke-width:1.07;stroke:#ccc;stroke-linecap:square;stroke-linejoin:miter;fill:#ccc" d="M599.81 384.93h16.21v157.29h-16.21zM616.02 384.93h16.21v157.29h-16.21zM632.23 286.63h16.21v255.59h-16.21z"/><path style="stroke-width:1.07;stroke:#ccc;stroke-linecap:square;stroke-linejoin:miter;fill:#ccc" d="M648.43 129.34h16.21v412.88h-16.21zM664.64 149h16.21v393.22h-16.21zM680.85 247.31h16.21v294.91h-16.21z"/><path style="stroke-width:1.07;stroke:#ccc;stroke-linecap:square;stroke-linejoin:miter;fill:#ccc" d="M697.06 109.68h16.21v432.54h-16.21zM713.27 109.68h16.21v432.54h-16.21z"/><path style="stroke-width:1.07;stroke:#ccc;stroke-linecap:square;stroke-linejoin:miter;fill:#ccc" d="M729.47 129.34h16.21v412.88h-16.21z"/><path style="stroke-width:1.07;stroke:#ccc;stroke-linecap:square;stroke-linejoin:miter;fill:#ccc" d="M745.68 247.31h16.21v294.91h-16.21zM761.89 247.31h16.21v294.91h-16.21zM778.1 384.93h16.21v157.29H778.1z"/><path style="stroke-width:1.07;stroke:#ccc;stroke-linecap:square;stroke-linejoin:miter;fill:#ccc" d="M794.31 247.31h16.21v294.91h-16.21z"/><path style="stroke-width:1.07;stroke:#ccc;stroke-linecap:square;stroke-linejoin:miter;fill:#ccc" d="M810.51 286.63h16.21v255.59h-16.21zM826.72 443.92h16.21v98.3h-16.21z"/><path style="stroke-width:1.07;stroke:#ccc;stroke-linecap:square;stroke-linejoin:miter;fill:#ccc" d="M842.93 443.92h16.21v98.3h-16.21zM859.14 424.26h16.21v117.97h-16.21zM875.35 522.56h16.21v19.66h-16.21z"/><path style="stroke-width:1.07;stroke:#ccc;stroke-linecap:square;stroke-linejoin:miter;fill:#ccc" d="M891.55 483.24h16.21v58.98h-16.21zM907.76 522.56h16.21v19.66h-16.21zM923.97 502.9h16.21v39.32h-16.21z"/></g></svg>