<svg xmlns="http://www.w3.org/2000/svg" class="svglite" width="1920" height="768" viewBox="0 0 1440 576"><defs><style>.svglite rect{fill:none;stroke:#000;stroke-linecap:round;stroke-linejoin:round;stroke-miterlimit:10}</style></defs><rect width="100%" height="100%" style="stroke:none;fill:none"/><defs><clipPath id="cpMC4wMHwxNDQwLjAwfDAuMDB8NTc2LjAw"><path d="M0 0h1440v576H0z"/></clipPath></defs><defs><clipPath id="cpOC4yMnwxNDM0LjUyfDUuNDh8NTY3Ljc4"><path d="M8.22 5.48h1426.3v562.3H8.22z"/></clipPath></defs><g clip-path="url(#cpOC4yMnwxNDM0LjUyfDUuNDh8NTY3Ljc4)"><path style="stroke-width:1.07;stroke:#fff;fill:#fff" d="M8.22 5.48h1426.3v562.3H8.22z"/><path style="stroke-width:1.07;stroke:#ccc;stroke-linecap:square;stroke-linejoin:miter;fill:#ccc" d="M324.27 527.62h16.21v14.61h-16.21zM372.9 527.62h16.21v14.61H372.9zM405.31 527.62h16.21v14.61h-16.21zM437.73 527.62h16.21v14.61h-16.21zM470.15 498.41h16.21v43.82h-16.21z"/><path style="stroke-width:1.07;stroke:#ccc;stroke-linecap:square;stroke-linejoin:miter;fill:#ccc" d="M486.35 527.62h16.21v14.61h-16.21zM502.56 498.41h16.21v43.82h-16.21zM534.98 483.8h16.21v58.42h-16.21zM551.19 513.01h16.21v29.21h-16.21z"/><path style="stroke-width:1.07;stroke:#ccc;stroke-linecap:square;stroke-linejoin:miter;fill:#ccc" d="M567.39 469.2h16.21v73.03h-16.21zM583.6 410.77h16.21v131.45H583.6z"/><path style="stroke-width:1.07;stroke:#ccc;stroke-linecap:square;stroke-linejoin:miter;fill:#ccc" d="M599.81 366.96h16.21v175.26h-16.21zM616.02 381.56h16.21v160.66h-16.21zM632.23 264.72h16.21v277.5h-16.21z"/><path style="stroke-width:1.07;stroke:#ccc;stroke-linecap:square;stroke-linejoin:miter;fill:#ccc" d="M648.43 147.88h16.21v394.34h-16.21zM664.64 118.67h16.21v423.55h-16.21zM680.85 250.12h16.21v292.1h-16.21z"/><path style="stroke-width:1.07;stroke:#ccc;stroke-linecap:square;stroke-linejoin:miter;fill:#ccc" d="M697.06 177.09h16.21v365.13h-16.21zM713.27 147.88h16.21v394.34h-16.21z"/><path style="stroke-width:1.07;stroke:#ccc;stroke-linecap:square;stroke-linejoin:miter;fill:#ccc" d="M729.47 162.49h16.21v379.74h-16.21z"/><path style="stroke-width:1.07;stroke:#ccc;stroke-linecap:square;stroke-linejoin:miter;fill:#ccc" d="M745.68 250.12h16.21v292.1h-16.21zM761.89 220.91h16.21v321.32h-16.21zM778.1 366.96h16.21v175.26H778.1z"/><path style="stroke-width:1.07;stroke:#ccc;stroke-linecap:square;stroke-linejoin:miter;fill:#ccc" d="M794.31 250.12h16.21v292.1h-16.21z"/><path style="stroke-width:1.07;stroke:#ccc;stroke-linecap:square;stroke-linejoin:miter;fill:#ccc" d="M810.51 323.14h16.21v219.08h-16.21zM826.72 454.59h16.21v87.63h-16.21z"/><path style="stroke-width:1.07;stroke:#ccc;stroke-linecap:square;stroke-linejoin:miter;fill:#ccc" d="M842.93 396.17h16.21v146.05h-16.21zM859.14 454.59h16.21v87.63h-16.21zM875.35 498.41h16.21v43.82h-16.21z"/><path style="stroke-width:1.07;stroke:#ccc;stroke-linecap:square;stroke-linejoin:miter;fill:#ccc" d="M891.55 483.8h16.21v58.42h-16.21zM907.76 513.01h16.21v29.21h-16.21zM923.97 513.01h16.21v29.21h-16.21z"/><path style="stroke-width:1.07;stroke:#ccc;stroke-linecap:square;stroke-linejoin:miter;fill:#ccc" d="M940.18 527.62h16.21v14.61h-16.21z"/></g></svg>