<svg xmlns="http://www.w3.org/2000/svg" class="svglite" width="1920" height="768" viewBox="0 0 1440 576"><defs><style>.svglite rect{fill:none;stroke:#000;stroke-linecap:round;stroke-linejoin:round;stroke-miterlimit:10}</style></defs><rect width="100%" height="100%" style="stroke:none;fill:none"/><defs><clipPath id="cpMC4wMHwxNDQwLjAwfDAuMDB8NTc2LjAw"><path d="M0 0h1440v576H0z"/></clipPath></defs><defs><clipPath id="cpOC4yMnwxNDM0LjUyfDUuNDh8NTY3Ljc4"><path d="M8.22 5.48h1426.3v562.3H8.22z"/></clipPath></defs><g clip-path="url(#cpOC4yMnwxNDM0LjUyfDUuNDh8NTY3Ljc4)"><path style="stroke-width:1.07;stroke:#fff;fill:#fff" d="M8.22 5.48h1426.3v562.3H8.22z"/><path style="stroke-width:1.07;stroke:#ccc;stroke-linecap:square;stroke-linejoin:miter;fill:#ccc" d="M291.86 530.86h16.21v11.36h-16.21zM324.27 530.86h16.21v11.36h-16.21zM356.69 530.86h16.21v11.36h-16.21zM372.9 530.86h16.21v11.36H372.9zM405.31 530.86h16.21v11.36h-16.21zM437.73 519.5h16.21v22.72h-16.21zM470.15 508.14h16.21v34.08h-16.21z"/><path style="stroke-width:1.07;stroke:#ccc;stroke-linecap:square;stroke-linejoin:miter;fill:#ccc" d="M486.35 530.86h16.21v11.36h-16.21zM502.56 496.78h16.21v45.44h-16.21zM534.98 496.78h16.21v45.44h-16.21zM551.19 496.78h16.21v45.44h-16.21z"/><path style="stroke-width:1.07;stroke:#ccc;stroke-linecap:square;stroke-linejoin:miter;fill:#ccc" d="M567.39 474.06h16.21v68.16h-16.21zM583.6 405.91h16.21v136.32H583.6z"/><path style="stroke-width:1.07;stroke:#ccc;stroke-linecap:square;stroke-linejoin:miter;fill:#ccc" d="M599.81 337.75h16.21v204.47h-16.21zM616.02 383.19h16.21v159.03h-16.21zM632.23 258.23h16.21v283.99h-16.21z"/><path style="stroke-width:1.07;stroke:#ccc;stroke-linecap:square;stroke-linejoin:miter;fill:#ccc" d="M648.43 201.43h16.21v340.79h-16.21zM664.64 201.43h16.21v340.79h-16.21zM680.85 201.43h16.21v340.79h-16.21z"/><path style="stroke-width:1.07;stroke:#ccc;stroke-linecap:square;stroke-linejoin:miter;fill:#ccc" d="M697.06 178.71h16.21v363.51h-16.21zM713.27 144.63h16.21v397.59h-16.21z"/><path style="stroke-width:1.07;stroke:#ccc;stroke-linecap:square;stroke-linejoin:miter;fill:#ccc" d="M729.47 121.92h16.21v420.31h-16.21z"/><path style="stroke-width:1.07;stroke:#ccc;stroke-linecap:square;stroke-linejoin:miter;fill:#ccc" d="M745.68 246.87h16.21v295.35h-16.21zM761.89 235.51h16.21v306.71h-16.21zM778.1 360.47h16.21v181.75H778.1z"/><path style="stroke-width:1.07;stroke:#ccc;stroke-linecap:square;stroke-linejoin:miter;fill:#ccc" d="M794.31 258.23h16.21v283.99h-16.21z"/><path style="stroke-width:1.07;stroke:#ccc;stroke-linecap:square;stroke-linejoin:miter;fill:#ccc" d="M810.51 337.75h16.21v204.47h-16.21zM826.72 451.34h16.21v90.88h-16.21z"/><path style="stroke-width:1.07;stroke:#ccc;stroke-linecap:square;stroke-linejoin:miter;fill:#ccc" d="M842.93 417.27h16.21v124.96h-16.21zM859.14 451.34h16.21v90.88h-16.21zM875.35 485.42h16.21v56.8h-16.21z"/><path style="stroke-width:1.07;stroke:#ccc;stroke-linecap:square;stroke-linejoin:miter;fill:#ccc" d="M891.55 496.78h16.21v45.44h-16.21zM907.76 508.14h16.21v34.08h-16.21zM923.97 519.5h16.21v22.72h-16.21z"/><path style="stroke-width:1.07;stroke:#ccc;stroke-linecap:square;stroke-linejoin:miter;fill:#ccc" d="M940.18 519.5h16.21v22.72h-16.21zM956.39 519.5h16.21v22.72h-16.21z"/><path style="stroke-width:1.07;stroke:#ccc;stroke-linecap:square;stroke-linejoin:miter;fill:#ccc" d="M972.59 530.86h16.21v11.36h-16.21z"/></g></svg>