<svg xmlns="http://www.w3.org/2000/svg" class="svglite" width="1920" height="768" viewBox="0 0 1440 576"><defs><style>.svglite rect{fill:none;stroke:#000;stroke-linecap:round;stroke-linejoin:round;stroke-miterlimit:10}</style></defs><rect width="100%" height="100%" style="stroke:none;fill:none"/><defs><clipPath id="cpMC4wMHwxNDQwLjAwfDAuMDB8NTc2LjAw"><path d="M0 0h1440v576H0z"/></clipPath></defs><defs><clipPath id="cpOC4yMnwxNDM0LjUyfDUuNDh8NTY3Ljc4"><path d="M8.22 5.48h1426.3v562.3H8.22z"/></clipPath></defs><g clip-path="url(#cpOC4yMnwxNDM0LjUyfDUuNDh8NTY3Ljc4)"><path style="stroke-width:1.07;stroke:#fff;fill:#fff" d="M8.22 5.48h1426.3v562.3H8.22z"/><path style="stroke-width:1.07;stroke:#ccc;stroke-linecap:square;stroke-linejoin:miter;fill:#ccc" d="M291.86 533.09h16.21v9.13h-16.21zM324.27 533.09h16.21v9.13h-16.21zM356.69 533.09h16.21v9.13h-16.21zM372.9 533.09h16.21v9.13H372.9zM405.31 533.09h16.21v9.13h-16.21zM437.73 523.97h16.21v18.26h-16.21zM470.15 514.84h16.21v27.38h-16.21z"/><path style="stroke-width:1.07;stroke:#ccc;stroke-linecap:square;stroke-linejoin:miter;fill:#ccc" d="M486.35 533.09h16.21v9.13h-16.21zM502.56 487.45h16.21v54.77h-16.21zM534.98 496.58h16.21v45.64h-16.21zM551.19 496.58h16.21v45.64h-16.21z"/><path style="stroke-width:1.07;stroke:#ccc;stroke-linecap:square;stroke-linejoin:miter;fill:#ccc" d="M567.39 487.45h16.21v54.77h-16.21zM583.6 414.43h16.21v127.8H583.6z"/><path style="stroke-width:1.07;stroke:#ccc;stroke-linecap:square;stroke-linejoin:miter;fill:#ccc" d="M599.81 332.27h16.21v209.95h-16.21zM616.02 332.27h16.21v209.95h-16.21zM632.23 268.37h16.21v273.85h-16.21z"/><path style="stroke-width:1.07;stroke:#ccc;stroke-linecap:square;stroke-linejoin:miter;fill:#ccc" d="M648.43 222.73h16.21v319.49h-16.21zM664.64 186.22h16.21v356h-16.21zM680.85 231.86h16.21v310.36h-16.21z"/><path style="stroke-width:1.07;stroke:#ccc;stroke-linecap:square;stroke-linejoin:miter;fill:#ccc" d="M697.06 195.35h16.21v346.87h-16.21zM713.27 122.32h16.21v419.9h-16.21z"/><path style="stroke-width:1.07;stroke:#ccc;stroke-linecap:square;stroke-linejoin:miter;fill:#ccc" d="M729.47 140.58h16.21v401.64h-16.21z"/><path style="stroke-width:1.07;stroke:#ccc;stroke-linecap:square;stroke-linejoin:miter;fill:#ccc" d="M745.68 250.12h16.21v292.1h-16.21zM761.89 250.12h16.21v292.1h-16.21zM778.1 332.27h16.21v209.95H778.1z"/><path style="stroke-width:1.07;stroke:#ccc;stroke-linecap:square;stroke-linejoin:miter;fill:#ccc" d="M794.31 259.25h16.21v282.98h-16.21z"/><path style="stroke-width:1.07;stroke:#ccc;stroke-linecap:square;stroke-linejoin:miter;fill:#ccc" d="M810.51 341.4h16.21v200.82h-16.21zM826.72 441.81h16.21v100.41h-16.21z"/><path style="stroke-width:1.07;stroke:#ccc;stroke-linecap:square;stroke-linejoin:miter;fill:#ccc" d="M842.93 405.3h16.21v136.92h-16.21zM859.14 460.07h16.21v82.15h-16.21zM875.35 496.58h16.21v45.64h-16.21z"/><path style="stroke-width:1.07;stroke:#ccc;stroke-linecap:square;stroke-linejoin:miter;fill:#ccc" d="M891.55 505.71h16.21v36.51h-16.21zM907.76 514.84h16.21v27.38h-16.21zM923.97 523.97h16.21v18.26h-16.21z"/><path style="stroke-width:1.07;stroke:#ccc;stroke-linecap:square;stroke-linejoin:miter;fill:#ccc" d="M940.18 514.84h16.21v27.38h-16.21zM956.39 505.71h16.21v36.51h-16.21z"/><path style="stroke-width:1.07;stroke:#ccc;stroke-linecap:square;stroke-linejoin:miter;fill:#ccc" d="M972.59 523.97h16.21v18.26h-16.21z"/><path style="stroke-width:1.07;stroke:#ccc;stroke-linecap:square;stroke-linejoin:miter;fill:#ccc" d="M988.8 533.09h16.21v9.13H988.8zM1037.43 533.09h16.21v9.13h-16.21z"/><path style="stroke-width:1.07;stroke:#ccc;stroke-linecap:square;stroke-linejoin:miter;fill:#ccc" d="M1053.63 533.09h16.21v9.13h-16.21z"/></g></svg>