<svg xmlns="http://www.w3.org/2000/svg" class="svglite" width="1920" height="768" viewBox="0 0 1440 576"><defs><style>.svglite rect{fill:none;stroke:#000;stroke-linecap:round;stroke-linejoin:round;stroke-miterlimit:10}</style></defs><rect width="100%" height="100%" style="stroke:none;fill:none"/><defs><clipPath id="cpMC4wMHwxNDQwLjAwfDAuMDB8NTc2LjAw"><path d="M0 0h1440v576H0z"/></clipPath></defs><defs><clipPath id="cpOC4yMnwxNDM0LjUyfDUuNDh8NTY3Ljc4"><path d="M8.22 5.48h1426.3v562.3H8.22z"/></clipPath></defs><g clip-path="url(#cpOC4yMnwxNDM0LjUyfDUuNDh8NTY3Ljc4)"><path style="stroke-width:1.07;stroke:#fff;fill:#fff" d="M8.22 5.48h1426.3v562.3H8.22z"/><path style="stroke-width:1.07;stroke:#ccc;stroke-linecap:square;stroke-linejoin:miter;fill:#ccc" d="M291.86 534.7h16.21v7.52h-16.21zM324.27 534.7h16.21v7.52h-16.21zM356.69 534.7h16.21v7.52h-16.21zM372.9 534.7h16.21v7.52H372.9zM405.31 534.7h16.21v7.52h-16.21zM437.73 527.19h16.21v15.03h-16.21zM453.94 534.7h16.21v7.52h-16.21zM470.15 512.15h16.21v30.07h-16.21z"/><path style="stroke-width:1.07;stroke:#ccc;stroke-linecap:square;stroke-linejoin:miter;fill:#ccc" d="M486.35 534.7h16.21v7.52h-16.21zM502.56 489.6h16.21v52.62h-16.21zM534.98 504.63h16.21v37.59h-16.21zM551.19 504.63h16.21v37.59h-16.21z"/><path style="stroke-width:1.07;stroke:#ccc;stroke-linecap:square;stroke-linejoin:miter;fill:#ccc" d="M567.39 467.05h16.21v75.17h-16.21zM583.6 421.94h16.21v120.28H583.6z"/><path style="stroke-width:1.07;stroke:#ccc;stroke-linecap:square;stroke-linejoin:miter;fill:#ccc" d="M599.81 346.77h16.21v195.45h-16.21zM616.02 309.18h16.21v233.04h-16.21zM632.23 301.66h16.21v240.56h-16.21z"/><path style="stroke-width:1.07;stroke:#ccc;stroke-linecap:square;stroke-linejoin:miter;fill:#ccc" d="M648.43 241.53h16.21v300.7h-16.21zM664.64 173.87h16.21v368.35h-16.21zM680.85 226.49h16.21v315.73h-16.21z"/><path style="stroke-width:1.07;stroke:#ccc;stroke-linecap:square;stroke-linejoin:miter;fill:#ccc" d="M697.06 166.35h16.21v375.87h-16.21zM713.27 166.35h16.21v375.87h-16.21z"/><path style="stroke-width:1.07;stroke:#ccc;stroke-linecap:square;stroke-linejoin:miter;fill:#ccc" d="M729.47 136.28h16.21v405.94h-16.21z"/><path style="stroke-width:1.07;stroke:#ccc;stroke-linecap:square;stroke-linejoin:miter;fill:#ccc" d="M745.68 226.49h16.21v315.73h-16.21zM761.89 241.53h16.21v300.7h-16.21zM778.1 316.7h16.21v225.52H778.1z"/><path style="stroke-width:1.07;stroke:#ccc;stroke-linecap:square;stroke-linejoin:miter;fill:#ccc" d="M794.31 264.08h16.21v278.14h-16.21z"/><path style="stroke-width:1.07;stroke:#ccc;stroke-linecap:square;stroke-linejoin:miter;fill:#ccc" d="M810.51 354.29h16.21v187.93h-16.21zM826.72 436.98h16.21v105.24h-16.21z"/><path style="stroke-width:1.07;stroke:#ccc;stroke-linecap:square;stroke-linejoin:miter;fill:#ccc" d="M842.93 414.43h16.21v127.8h-16.21zM859.14 459.53h16.21v82.69h-16.21zM875.35 489.6h16.21v52.62h-16.21z"/><path style="stroke-width:1.07;stroke:#ccc;stroke-linecap:square;stroke-linejoin:miter;fill:#ccc" d="M891.55 497.12h16.21v45.1h-16.21zM907.76 512.15h16.21v30.07h-16.21zM923.97 519.67h16.21v22.55h-16.21z"/><path style="stroke-width:1.07;stroke:#ccc;stroke-linecap:square;stroke-linejoin:miter;fill:#ccc" d="M940.18 519.67h16.21v22.55h-16.21zM956.39 504.63h16.21v37.59h-16.21z"/><path style="stroke-width:1.07;stroke:#ccc;stroke-linecap:square;stroke-linejoin:miter;fill:#ccc" d="M972.59 519.67h16.21v22.55h-16.21z"/><path style="stroke-width:1.07;stroke:#ccc;stroke-linecap:square;stroke-linejoin:miter;fill:#ccc" d="M988.8 534.7h16.21v7.52H988.8zM1037.43 534.7h16.21v7.52h-16.21z"/><path style="stroke-width:1.07;stroke:#ccc;stroke-linecap:square;stroke-linejoin:miter;fill:#ccc" d="M1053.63 534.7h16.21v7.52h-16.21z"/></g></svg>