<svg xmlns="http://www.w3.org/2000/svg" class="svglite" width="1920" height="768" viewBox="0 0 1440 576"><defs><style>.svglite rect{fill:none;stroke:#000;stroke-linecap:round;stroke-linejoin:round;stroke-miterlimit:10}</style></defs><rect width="100%" height="100%" style="stroke:none;fill:none"/><defs><clipPath id="cpMC4wMHwxNDQwLjAwfDAuMDB8NTc2LjAw"><path d="M0 0h1440v576H0z"/></clipPath></defs><defs><clipPath id="cpOC4yMnwxNDM0LjUyfDUuNDh8NTY3Ljc4"><path d="M8.22 5.48h1426.3v562.3H8.22z"/></clipPath></defs><g clip-path="url(#cpOC4yMnwxNDM0LjUyfDUuNDh8NTY3Ljc4)"><path style="stroke-width:1.07;stroke:#fff;fill:#fff" d="M8.22 5.48h1426.3v562.3H8.22z"/><path style="stroke-width:1.07;stroke:#ccc;stroke-linecap:square;stroke-linejoin:miter;fill:#ccc" d="M291.86 535.91h16.21v6.31h-16.21zM324.27 535.91h16.21v6.31h-16.21zM356.69 535.91h16.21v6.31h-16.21zM372.9 535.91h16.21v6.31H372.9zM405.31 535.91h16.21v6.31h-16.21zM437.73 529.6h16.21v12.62h-16.21zM453.94 535.91h16.21v6.31h-16.21zM470.15 516.98h16.21v25.24h-16.21z"/><path style="stroke-width:1.07;stroke:#ccc;stroke-linecap:square;stroke-linejoin:miter;fill:#ccc" d="M486.35 535.91h16.21v6.31h-16.21zM502.56 491.73h16.21v50.49h-16.21zM534.98 491.73h16.21v50.49h-16.21zM551.19 498.05h16.21v44.18h-16.21z"/><path style="stroke-width:1.07;stroke:#ccc;stroke-linecap:square;stroke-linejoin:miter;fill:#ccc" d="M567.39 472.8h16.21v69.42h-16.21zM583.6 428.63h16.21v113.6H583.6z"/><path style="stroke-width:1.07;stroke:#ccc;stroke-linecap:square;stroke-linejoin:miter;fill:#ccc" d="M599.81 359.21h16.21v183.02h-16.21zM616.02 327.65h16.21v214.57h-16.21zM632.23 283.47h16.21v258.75h-16.21z"/><path style="stroke-width:1.07;stroke:#ccc;stroke-linecap:square;stroke-linejoin:miter;fill:#ccc" d="M648.43 270.85h16.21v271.37h-16.21zM664.64 188.81h16.21v353.41h-16.21zM680.85 239.3h16.21v302.92h-16.21z"/><path style="stroke-width:1.07;stroke:#ccc;stroke-linecap:square;stroke-linejoin:miter;fill:#ccc" d="M697.06 150.95h16.21v391.28h-16.21zM713.27 163.57h16.21v378.65h-16.21z"/><path style="stroke-width:1.07;stroke:#ccc;stroke-linecap:square;stroke-linejoin:miter;fill:#ccc" d="M729.47 81.53h16.21v460.7h-16.21z"/><path style="stroke-width:1.07;stroke:#ccc;stroke-linecap:square;stroke-linejoin:miter;fill:#ccc" d="M745.68 226.68h16.21v315.55h-16.21zM761.89 251.92h16.21v290.3h-16.21zM778.1 289.79h16.21v252.44H778.1z"/><path style="stroke-width:1.07;stroke:#ccc;stroke-linecap:square;stroke-linejoin:miter;fill:#ccc" d="M794.31 270.85h16.21v271.37h-16.21z"/><path style="stroke-width:1.07;stroke:#ccc;stroke-linecap:square;stroke-linejoin:miter;fill:#ccc" d="M810.51 378.14h16.21v164.08h-16.21zM826.72 434.94h16.21v107.29h-16.21z"/><path style="stroke-width:1.07;stroke:#ccc;stroke-linecap:square;stroke-linejoin:miter;fill:#ccc" d="M842.93 416h16.21v126.22h-16.21zM859.14 453.87h16.21v88.35h-16.21zM875.35 485.42h16.21v56.8h-16.21z"/><path style="stroke-width:1.07;stroke:#ccc;stroke-linecap:square;stroke-linejoin:miter;fill:#ccc" d="M891.55 498.05h16.21v44.18h-16.21zM907.76 516.98h16.21v25.24h-16.21zM923.97 523.29h16.21v18.93h-16.21z"/><path style="stroke-width:1.07;stroke:#ccc;stroke-linecap:square;stroke-linejoin:miter;fill:#ccc" d="M940.18 523.29h16.21v18.93h-16.21zM956.39 485.42h16.21v56.8h-16.21z"/><path style="stroke-width:1.07;stroke:#ccc;stroke-linecap:square;stroke-linejoin:miter;fill:#ccc" d="M972.59 523.29h16.21v18.93h-16.21z"/><path style="stroke-width:1.07;stroke:#ccc;stroke-linecap:square;stroke-linejoin:miter;fill:#ccc" d="M988.8 529.6h16.21v12.62H988.8zM1021.22 535.91h16.21v6.31h-16.21zM1037.43 535.91h16.21v6.31h-16.21z"/><path style="stroke-width:1.07;stroke:#ccc;stroke-linecap:square;stroke-linejoin:miter;fill:#ccc" d="M1053.63 535.91h16.21v6.31h-16.21z"/></g></svg>